<svg width="661" height="313" viewBox="0 0 661 313" fill="none" xmlns="http://www.w3.org/2000/svg">
<path d="M4.49792 8.75L5.60535 8.65625C5.68738 9.19531 5.87683 9.60156 6.17371 9.875C6.47449 10.1445 6.83582 10.2793 7.25769 10.2793C7.7655 10.2793 8.19519 10.0879 8.54675 9.70508C8.89832 9.32227 9.0741 8.81445 9.0741 8.18164C9.0741 7.58008 8.90417 7.10547 8.56433 6.75781C8.22839 6.41016 7.78699 6.23633 7.24011 6.23633C6.90027 6.23633 6.59363 6.31445 6.32019 6.4707C6.04675 6.62305 5.83191 6.82227 5.67566 7.06836L4.68542 6.93945L5.51746 2.52734H9.78894V3.53516H6.36121L5.89832 5.84375C6.41394 5.48438 6.95496 5.30469 7.52136 5.30469C8.27136 5.30469 8.90417 5.56445 9.4198 6.08398C9.93542 6.60352 10.1932 7.27148 10.1932 8.08789C10.1932 8.86523 9.96667 9.53711 9.51355 10.1035C8.96277 10.7988 8.21082 11.1465 7.25769 11.1465C6.47644 11.1465 5.83777 10.9277 5.34167 10.4902C4.84949 10.0527 4.56824 9.47266 4.49792 8.75ZM11.1776 6.76367C11.1776 5.74805 11.2811 4.93164 11.4882 4.31445C11.6991 3.69336 12.0096 3.21484 12.4198 2.87891C12.8339 2.54297 13.3534 2.375 13.9784 2.375C14.4393 2.375 14.8436 2.46875 15.1913 2.65625C15.5389 2.83984 15.826 3.10742 16.0526 3.45898C16.2792 3.80664 16.4569 4.23242 16.5858 4.73633C16.7147 5.23633 16.7792 5.91211 16.7792 6.76367C16.7792 7.77148 16.6757 8.58594 16.4686 9.20703C16.2616 9.82422 15.951 10.3027 15.537 10.6426C15.1268 10.9785 14.6073 11.1465 13.9784 11.1465C13.1503 11.1465 12.4999 10.8496 12.0272 10.2559C11.4608 9.54102 11.1776 8.37695 11.1776 6.76367ZM12.2616 6.76367C12.2616 8.17383 12.4257 9.11328 12.7538 9.58203C13.0858 10.0469 13.494 10.2793 13.9784 10.2793C14.4628 10.2793 14.869 10.0449 15.1971 9.57617C15.5292 9.10742 15.6952 8.16992 15.6952 6.76367C15.6952 5.34961 15.5292 4.41016 15.1971 3.94531C14.869 3.48047 14.4589 3.24805 13.9667 3.24805C13.4823 3.24805 13.0956 3.45312 12.8065 3.86328C12.4432 4.38672 12.2616 5.35352 12.2616 6.76367Z" fill="white" fill-opacity="0.8"/>
<path d="M7.87878 66.8V64.7434H4.15222V63.7766L8.07214 58.2102H8.93347V63.7766H10.0936V64.7434H8.93347V66.8H7.87878ZM7.87878 63.7766V59.9036L5.18933 63.7766H7.87878ZM11.1776 62.5637C11.1776 61.5481 11.2811 60.7317 11.4882 60.1145C11.6991 59.4934 12.0096 59.0149 12.4198 58.679C12.8339 58.343 13.3534 58.175 13.9784 58.175C14.4393 58.175 14.8436 58.2688 15.1913 58.4563C15.5389 58.6399 15.826 58.9075 16.0526 59.259C16.2792 59.6067 16.4569 60.0325 16.5858 60.5364C16.7147 61.0364 16.7792 61.7122 16.7792 62.5637C16.7792 63.5715 16.6757 64.386 16.4686 65.0071C16.2616 65.6243 15.951 66.1028 15.537 66.4426C15.1268 66.7786 14.6073 66.9465 13.9784 66.9465C13.1503 66.9465 12.4999 66.6497 12.0272 66.0559C11.4608 65.3411 11.1776 64.177 11.1776 62.5637ZM12.2616 62.5637C12.2616 63.9739 12.4257 64.9133 12.7538 65.3821C13.0858 65.8469 13.494 66.0793 13.9784 66.0793C14.4628 66.0793 14.869 65.845 15.1971 65.3762C15.5292 64.9075 15.6952 63.97 15.6952 62.5637C15.6952 61.1497 15.5292 60.2102 15.1971 59.7454C14.869 59.2805 14.4589 59.0481 13.9667 59.0481C13.4823 59.0481 13.0956 59.2532 12.8065 59.6633C12.4432 60.1868 12.2616 61.1536 12.2616 62.5637Z" fill="white" fill-opacity="0.8"/>
<path d="M4.50378 120.332L5.55847 120.192C5.67957 120.789 5.88464 121.221 6.17371 121.487C6.46667 121.748 6.82214 121.879 7.24011 121.879C7.73621 121.879 8.15417 121.707 8.49402 121.364C8.83777 121.02 9.00964 120.594 9.00964 120.086C9.00964 119.602 8.85144 119.203 8.53503 118.891C8.21863 118.575 7.81628 118.416 7.328 118.416C7.12878 118.416 6.88074 118.455 6.58386 118.534L6.70105 117.608C6.77136 117.616 6.828 117.62 6.87097 117.62C7.32019 117.62 7.72449 117.502 8.08386 117.268C8.44324 117.034 8.62292 116.672 8.62292 116.184C8.62292 115.797 8.49207 115.477 8.23035 115.223C7.96863 114.969 7.63074 114.842 7.21667 114.842C6.80652 114.842 6.46472 114.971 6.19128 115.229C5.91785 115.487 5.74207 115.873 5.66394 116.389L4.60925 116.202C4.73816 115.495 5.03113 114.948 5.48816 114.561C5.94519 114.17 6.51355 113.975 7.19324 113.975C7.66199 113.975 8.09363 114.077 8.48816 114.28C8.88269 114.479 9.18347 114.752 9.3905 115.1C9.60144 115.448 9.70691 115.817 9.70691 116.207C9.70691 116.578 9.6073 116.916 9.40808 117.221C9.20886 117.526 8.91394 117.768 8.52332 117.948C9.03113 118.065 9.42566 118.309 9.70691 118.68C9.98816 119.047 10.1288 119.508 10.1288 120.063C10.1288 120.813 9.85535 121.45 9.30847 121.973C8.7616 122.493 8.07019 122.752 7.23425 122.752C6.48035 122.752 5.85339 122.528 5.35339 122.078C4.8573 121.629 4.5741 121.047 4.50378 120.332ZM11.1776 118.364C11.1776 117.348 11.2811 116.532 11.4882 115.914C11.6991 115.293 12.0096 114.815 12.4198 114.479C12.8339 114.143 13.3534 113.975 13.9784 113.975C14.4393 113.975 14.8436 114.069 15.1913 114.256C15.5389 114.44 15.826 114.707 16.0526 115.059C16.2792 115.407 16.4569 115.832 16.5858 116.336C16.7147 116.836 16.7792 117.512 16.7792 118.364C16.7792 119.371 16.6757 120.186 16.4686 120.807C16.2616 121.424 15.951 121.903 15.537 122.243C15.1268 122.578 14.6073 122.746 13.9784 122.746C13.1503 122.746 12.4999 122.45 12.0272 121.856C11.4608 121.141 11.1776 119.977 11.1776 118.364ZM12.2616 118.364C12.2616 119.774 12.4257 120.713 12.7538 121.182C13.0858 121.647 13.494 121.879 13.9784 121.879C14.4628 121.879 14.869 121.645 15.1971 121.176C15.5292 120.707 15.6952 119.77 15.6952 118.364C15.6952 116.95 15.5292 116.01 15.1971 115.545C14.869 115.08 14.4589 114.848 13.9667 114.848C13.4823 114.848 13.0956 115.053 12.8065 115.463C12.4432 115.987 12.2616 116.953 12.2616 118.364Z" fill="white" fill-opacity="0.8"/>
<path d="M10.0409 177.386V178.4H4.36316C4.35535 178.146 4.39636 177.902 4.48621 177.668C4.63074 177.281 4.86121 176.9 5.17761 176.525C5.49792 176.15 5.95886 175.716 6.56042 175.224C7.49402 174.459 8.12488 173.853 8.453 173.408C8.78113 172.959 8.94519 172.535 8.94519 172.136C8.94519 171.718 8.7948 171.367 8.49402 171.082C8.19714 170.793 7.80847 170.648 7.328 170.648C6.82019 170.648 6.41394 170.8 6.10925 171.105C5.80457 171.41 5.65027 171.832 5.64636 172.371L4.56238 172.259C4.6366 171.451 4.91589 170.836 5.40027 170.414C5.88464 169.988 6.53503 169.775 7.35144 169.775C8.17566 169.775 8.828 170.004 9.30847 170.461C9.78894 170.918 10.0292 171.484 10.0292 172.16C10.0292 172.504 9.95886 172.841 9.81824 173.173C9.67761 173.505 9.44324 173.855 9.11511 174.222C8.79089 174.589 8.24988 175.093 7.49207 175.734C6.85925 176.265 6.453 176.627 6.27332 176.818C6.09363 177.005 5.94519 177.195 5.828 177.386H10.0409ZM11.1776 174.164C11.1776 173.148 11.2811 172.332 11.4882 171.714C11.6991 171.093 12.0096 170.615 12.4198 170.279C12.8339 169.943 13.3534 169.775 13.9784 169.775C14.4393 169.775 14.8436 169.869 15.1913 170.056C15.5389 170.24 15.826 170.507 16.0526 170.859C16.2792 171.207 16.4569 171.632 16.5858 172.136C16.7147 172.636 16.7792 173.312 16.7792 174.164C16.7792 175.172 16.6757 175.986 16.4686 176.607C16.2616 177.224 15.951 177.703 15.537 178.043C15.1268 178.379 14.6073 178.547 13.9784 178.547C13.1503 178.547 12.4999 178.25 12.0272 177.656C11.4608 176.941 11.1776 175.777 11.1776 174.164ZM12.2616 174.164C12.2616 175.574 12.4257 176.513 12.7538 176.982C13.0858 177.447 13.494 177.679 13.9784 177.679C14.4628 177.679 14.869 177.445 15.1971 176.976C15.5292 176.507 15.6952 175.57 15.6952 174.164C15.6952 172.75 15.5292 171.81 15.1971 171.345C14.869 170.88 14.4589 170.648 13.9667 170.648C13.4823 170.648 13.0956 170.853 12.8065 171.263C12.4432 171.787 12.2616 172.754 12.2616 174.164Z" fill="white" fill-opacity="0.8"/>
<path d="M8.47058 234.2H7.41589V227.479C7.16199 227.721 6.828 227.964 6.41394 228.206C6.00378 228.448 5.63464 228.63 5.30652 228.751V227.731C5.89636 227.454 6.41199 227.118 6.85339 226.723C7.2948 226.329 7.6073 225.946 7.79089 225.575H8.47058V234.2ZM11.1776 229.964C11.1776 228.948 11.2811 228.132 11.4882 227.514C11.6991 226.893 12.0096 226.415 12.4198 226.079C12.8339 225.743 13.3534 225.575 13.9784 225.575C14.4393 225.575 14.8436 225.669 15.1913 225.856C15.5389 226.04 15.826 226.307 16.0526 226.659C16.2792 227.007 16.4569 227.432 16.5858 227.936C16.7147 228.436 16.7792 229.112 16.7792 229.964C16.7792 230.971 16.6757 231.786 16.4686 232.407C16.2616 233.024 15.951 233.503 15.537 233.843C15.1268 234.178 14.6073 234.346 13.9784 234.346C13.1503 234.346 12.4999 234.05 12.0272 233.456C11.4608 232.741 11.1776 231.577 11.1776 229.964ZM12.2616 229.964C12.2616 231.374 12.4257 232.313 12.7538 232.782C13.0858 233.247 13.494 233.479 13.9784 233.479C14.4628 233.479 14.869 233.245 15.1971 232.776C15.5292 232.307 15.6952 231.37 15.6952 229.964C15.6952 228.55 15.5292 227.61 15.1971 227.145C14.869 226.68 14.4589 226.448 13.9667 226.448C13.4823 226.448 13.0956 226.653 12.8065 227.063C12.4432 227.587 12.2616 228.553 12.2616 229.964Z" fill="white" fill-opacity="0.8"/>
<path d="M11.4979 285.764C11.4979 284.748 11.6014 283.932 11.8085 283.314C12.0194 282.693 12.33 282.215 12.7401 281.879C13.1542 281.543 13.6737 281.375 14.2987 281.375C14.7596 281.375 15.1639 281.469 15.5116 281.656C15.8593 281.84 16.1464 282.107 16.3729 282.459C16.5995 282.807 16.7772 283.232 16.9061 283.736C17.035 284.236 17.0995 284.912 17.0995 285.764C17.0995 286.771 16.996 287.586 16.7889 288.207C16.5819 288.824 16.2714 289.303 15.8573 289.643C15.4471 289.979 14.9276 290.146 14.2987 290.146C13.4706 290.146 12.8202 289.85 12.3475 289.256C11.7811 288.541 11.4979 287.377 11.4979 285.764ZM12.5819 285.764C12.5819 287.174 12.746 288.113 13.0741 288.582C13.4061 289.047 13.8143 289.279 14.2987 289.279C14.7831 289.279 15.1893 289.045 15.5175 288.576C15.8495 288.107 16.0155 287.17 16.0155 285.764C16.0155 284.35 15.8495 283.41 15.5175 282.945C15.1893 282.48 14.7792 282.248 14.287 282.248C13.8026 282.248 13.4159 282.453 13.1268 282.863C12.7635 283.387 12.5819 284.354 12.5819 285.764Z" fill="white" fill-opacity="0.8"/>
<path d="M181.75 146.5L75.2499 185.56V286H607.75V18.16L501.25 34.9L394.75 57.22L288.25 107.44L181.75 146.5Z" fill="url(#paint0_linear_59_2024)"/>
<g filter="url(#filter0_ddd_59_2024)">
<path d="M75.2499 185.56L181.75 146.5L288.25 107.44L394.75 57.22L501.25 34.9L607.75 18.16M607.75 18.16V18.16Z" stroke="#5300D0"/>
</g>
<circle cx="75.2499" cy="185.56" r="3.5" fill="#1A1F26" stroke="#5300D0"/>
<circle cx="181.75" cy="146.5" r="3.5" fill="#1A1F26" stroke="#5300D0"/>
<circle cx="288.25" cy="107.44" r="3.5" fill="#1A1F26" stroke="#5300D0"/>
<circle cx="394.75" cy="57.22" r="3.5" fill="#1A1F26" stroke="#5300D0"/>
<circle cx="501.25" cy="34.9" r="3.5" fill="#1A1F26" stroke="#5300D0"/>
<circle cx="607.75" cy="18.16" r="3.5" fill="#1A1F26" stroke="#5300D0"/>
<path d="M72.7909 174H71.7362V167.279C71.4823 167.521 71.1483 167.764 70.7343 168.006C70.3241 168.248 69.955 168.43 69.6268 168.551V167.531C70.2167 167.254 70.7323 166.918 71.1737 166.523C71.6151 166.129 71.9276 165.746 72.1112 165.375H72.7909V174ZM77.121 169.342C76.6835 169.182 76.3593 168.953 76.1483 168.656C75.9374 168.359 75.8319 168.004 75.8319 167.59C75.8319 166.965 76.0565 166.439 76.5057 166.014C76.955 165.588 77.5526 165.375 78.2987 165.375C79.0487 165.375 79.6522 165.594 80.1093 166.031C80.5663 166.465 80.7948 166.994 80.7948 167.619C80.7948 168.018 80.6893 168.365 80.4784 168.662C80.2714 168.955 79.955 169.182 79.5292 169.342C80.0565 169.514 80.4569 169.791 80.7303 170.174C81.0077 170.557 81.1464 171.014 81.1464 171.545C81.1464 172.279 80.8866 172.896 80.3671 173.396C79.8475 173.896 79.1639 174.146 78.3163 174.146C77.4686 174.146 76.785 173.896 76.2655 173.396C75.746 172.893 75.4862 172.266 75.4862 171.516C75.4862 170.957 75.6268 170.49 75.9081 170.115C76.1932 169.736 76.5975 169.479 77.121 169.342ZM76.91 167.555C76.91 167.961 77.0409 168.293 77.3026 168.551C77.5643 168.809 77.9042 168.938 78.3221 168.938C78.7284 168.938 79.0604 168.811 79.3182 168.557C79.58 168.299 79.7108 167.984 79.7108 167.613C79.7108 167.227 79.576 166.902 79.3065 166.641C79.0409 166.375 78.7089 166.242 78.3104 166.242C77.9081 166.242 77.5741 166.371 77.3085 166.629C77.0428 166.887 76.91 167.195 76.91 167.555ZM76.5702 171.521C76.5702 171.822 76.6405 172.113 76.7811 172.395C76.9257 172.676 77.1385 172.895 77.4198 173.051C77.701 173.203 78.0038 173.279 78.328 173.279C78.8319 173.279 79.2479 173.117 79.576 172.793C79.9042 172.469 80.0682 172.057 80.0682 171.557C80.0682 171.049 79.8983 170.629 79.5585 170.297C79.2225 169.965 78.8007 169.799 78.2928 169.799C77.7968 169.799 77.3846 169.963 77.0565 170.291C76.7323 170.619 76.5702 171.029 76.5702 171.521Z" fill="white"/>
<path d="M181.361 133.986V135H175.683C175.676 134.746 175.717 134.502 175.807 134.268C175.951 133.881 176.182 133.5 176.498 133.125C176.818 132.75 177.279 132.316 177.881 131.824C178.814 131.059 179.445 130.453 179.773 130.008C180.101 129.559 180.266 129.135 180.266 128.736C180.266 128.318 180.115 127.967 179.814 127.682C179.517 127.393 179.129 127.248 178.648 127.248C178.141 127.248 177.734 127.4 177.43 127.705C177.125 128.01 176.971 128.432 176.967 128.971L175.883 128.859C175.957 128.051 176.236 127.436 176.721 127.014C177.205 126.588 177.855 126.375 178.672 126.375C179.496 126.375 180.148 126.604 180.629 127.061C181.109 127.518 181.349 128.084 181.349 128.76C181.349 129.104 181.279 129.441 181.139 129.773C180.998 130.105 180.764 130.455 180.435 130.822C180.111 131.189 179.57 131.693 178.812 132.334C178.18 132.865 177.773 133.227 177.594 133.418C177.414 133.605 177.266 133.795 177.148 133.986H181.361ZM182.498 132.75L183.605 132.656C183.687 133.195 183.877 133.602 184.174 133.875C184.474 134.145 184.836 134.279 185.258 134.279C185.766 134.279 186.195 134.088 186.547 133.705C186.898 133.322 187.074 132.814 187.074 132.182C187.074 131.58 186.904 131.105 186.564 130.758C186.228 130.41 185.787 130.236 185.24 130.236C184.9 130.236 184.594 130.314 184.32 130.471C184.047 130.623 183.832 130.822 183.676 131.068L182.685 130.939L183.517 126.527H187.789V127.535H184.361L183.898 129.844C184.414 129.484 184.955 129.305 185.521 129.305C186.271 129.305 186.904 129.564 187.42 130.084C187.935 130.604 188.193 131.271 188.193 132.088C188.193 132.865 187.967 133.537 187.514 134.104C186.963 134.799 186.211 135.146 185.258 135.146C184.476 135.146 183.838 134.928 183.342 134.49C182.849 134.053 182.568 133.473 182.498 132.75Z" fill="white"/>
<path d="M281.824 93.7324L282.879 93.5918C283 94.1895 283.205 94.6211 283.494 94.8867C283.787 95.1484 284.142 95.2793 284.56 95.2793C285.057 95.2793 285.474 95.1074 285.814 94.7637C286.158 94.4199 286.33 93.9941 286.33 93.4863C286.33 93.002 286.172 92.6035 285.855 92.291C285.539 91.9746 285.137 91.8164 284.648 91.8164C284.449 91.8164 284.201 91.8555 283.904 91.9336L284.021 91.0078C284.092 91.0156 284.148 91.0195 284.191 91.0195C284.641 91.0195 285.045 90.9023 285.404 90.668C285.764 90.4336 285.943 90.0723 285.943 89.584C285.943 89.1973 285.812 88.877 285.551 88.623C285.289 88.3691 284.951 88.2422 284.537 88.2422C284.127 88.2422 283.785 88.3711 283.512 88.6289C283.238 88.8867 283.062 89.2734 282.984 89.7891L281.93 89.6016C282.058 88.8945 282.351 88.3477 282.808 87.9609C283.266 87.5703 283.834 87.375 284.514 87.375C284.982 87.375 285.414 87.4766 285.808 87.6797C286.203 87.8789 286.504 88.1523 286.711 88.5C286.922 88.8477 287.027 89.2168 287.027 89.6074C287.027 89.9785 286.928 90.3164 286.728 90.6211C286.529 90.9258 286.234 91.168 285.844 91.3477C286.351 91.4648 286.746 91.709 287.027 92.0801C287.308 92.4473 287.449 92.9082 287.449 93.4629C287.449 94.2129 287.176 94.8496 286.629 95.373C286.082 95.8926 285.391 96.1523 284.555 96.1523C283.801 96.1523 283.174 95.9277 282.674 95.4785C282.178 95.0293 281.894 94.4473 281.824 93.7324ZM294.041 94.9863V96H288.363C288.355 95.7461 288.396 95.502 288.486 95.2676C288.631 94.8809 288.861 94.5 289.178 94.125C289.498 93.75 289.959 93.3164 290.56 92.8242C291.494 92.0586 292.125 91.4531 292.453 91.0078C292.781 90.5586 292.945 90.1348 292.945 89.7363C292.945 89.3184 292.795 88.9668 292.494 88.6816C292.197 88.3926 291.808 88.248 291.328 88.248C290.82 88.248 290.414 88.4004 290.109 88.7051C289.805 89.0098 289.65 89.4316 289.646 89.9707L288.562 89.8594C288.637 89.0508 288.916 88.4355 289.4 88.0137C289.885 87.5879 290.535 87.375 291.351 87.375C292.176 87.375 292.828 87.6035 293.308 88.0605C293.789 88.5176 294.029 89.084 294.029 89.7598C294.029 90.1035 293.959 90.4414 293.818 90.7734C293.678 91.1055 293.443 91.4551 293.115 91.8223C292.791 92.1895 292.25 92.6934 291.492 93.334C290.859 93.8652 290.453 94.2266 290.273 94.418C290.094 94.6055 289.945 94.7949 289.828 94.9863H294.041Z" fill="white"/>
<path d="M392.199 46V43.9434H388.473V42.9766L392.392 37.4102H393.254V42.9766H394.414V43.9434H393.254V46H392.199ZM392.199 42.9766V39.1035L389.51 42.9766H392.199ZM401.041 44.9863V46H395.363C395.355 45.7461 395.396 45.502 395.486 45.2676C395.631 44.8809 395.861 44.5 396.178 44.125C396.498 43.75 396.959 43.3164 397.56 42.8242C398.494 42.0586 399.125 41.4531 399.453 41.0078C399.781 40.5586 399.945 40.1348 399.945 39.7363C399.945 39.3184 399.795 38.9668 399.494 38.6816C399.197 38.3926 398.808 38.248 398.328 38.248C397.82 38.248 397.414 38.4004 397.109 38.7051C396.805 39.0098 396.65 39.4316 396.646 39.9707L395.562 39.8594C395.637 39.0508 395.916 38.4355 396.4 38.0137C396.885 37.5879 397.535 37.375 398.351 37.375C399.176 37.375 399.828 37.6035 400.308 38.0605C400.789 38.5176 401.029 39.084 401.029 39.7598C401.029 40.1035 400.959 40.4414 400.818 40.7734C400.678 41.1055 400.443 41.4551 400.115 41.8223C399.791 42.1895 399.25 42.6934 398.492 43.334C397.859 43.8652 397.453 44.2266 397.273 44.418C397.094 44.6055 396.945 44.7949 396.828 44.9863H401.041Z" fill="white"/>
<path d="M499.199 27V24.9434H495.473V23.9766L499.392 18.4102H500.254V23.9766H501.414V24.9434H500.254V27H499.199ZM499.199 23.9766V20.1035L496.51 23.9766H499.199ZM502.498 24.75L503.605 24.6562C503.687 25.1953 503.877 25.6016 504.174 25.875C504.474 26.1445 504.836 26.2793 505.258 26.2793C505.766 26.2793 506.195 26.0879 506.547 25.7051C506.898 25.3223 507.074 24.8145 507.074 24.1816C507.074 23.5801 506.904 23.1055 506.564 22.7578C506.228 22.4102 505.787 22.2363 505.24 22.2363C504.9 22.2363 504.594 22.3145 504.32 22.4707C504.047 22.623 503.832 22.8223 503.676 23.0684L502.685 22.9395L503.517 18.5273H507.789V19.5352H504.361L503.898 21.8438C504.414 21.4844 504.955 21.3047 505.521 21.3047C506.271 21.3047 506.904 21.5645 507.42 22.084C507.935 22.6035 508.193 23.2715 508.193 24.0879C508.193 24.8652 507.967 25.5371 507.514 26.1035C506.963 26.7988 506.211 27.1465 505.258 27.1465C504.476 27.1465 503.838 26.9277 503.342 26.4902C502.849 26.0527 502.568 25.4727 502.498 24.75Z" fill="white"/>
<path d="M605.199 11V8.94336H601.473V7.97656L605.392 2.41016H606.254V7.97656H607.414V8.94336H606.254V11H605.199ZM605.199 7.97656V4.10352L602.51 7.97656H605.199ZM610.121 6.3418C609.683 6.18164 609.359 5.95312 609.148 5.65625C608.937 5.35938 608.832 5.00391 608.832 4.58984C608.832 3.96484 609.057 3.43945 609.506 3.01367C609.955 2.58789 610.553 2.375 611.299 2.375C612.049 2.375 612.652 2.59375 613.109 3.03125C613.566 3.46484 613.795 3.99414 613.795 4.61914C613.795 5.01758 613.689 5.36523 613.478 5.66211C613.271 5.95508 612.955 6.18164 612.529 6.3418C613.057 6.51367 613.457 6.79102 613.73 7.17383C614.008 7.55664 614.146 8.01367 614.146 8.54492C614.146 9.2793 613.887 9.89648 613.367 10.3965C612.848 10.8965 612.164 11.1465 611.316 11.1465C610.469 11.1465 609.785 10.8965 609.266 10.3965C608.746 9.89258 608.486 9.26562 608.486 8.51562C608.486 7.95703 608.627 7.49023 608.908 7.11523C609.193 6.73633 609.598 6.47852 610.121 6.3418ZM609.91 4.55469C609.91 4.96094 610.041 5.29297 610.303 5.55078C610.564 5.80859 610.904 5.9375 611.322 5.9375C611.728 5.9375 612.06 5.81055 612.318 5.55664C612.58 5.29883 612.711 4.98438 612.711 4.61328C612.711 4.22656 612.576 3.90234 612.307 3.64062C612.041 3.375 611.709 3.24219 611.31 3.24219C610.908 3.24219 610.574 3.37109 610.308 3.62891C610.043 3.88672 609.91 4.19531 609.91 4.55469ZM609.57 8.52148C609.57 8.82227 609.641 9.11328 609.781 9.39453C609.926 9.67578 610.139 9.89453 610.42 10.0508C610.701 10.2031 611.004 10.2793 611.328 10.2793C611.832 10.2793 612.248 10.1172 612.576 9.79297C612.904 9.46875 613.068 9.05664 613.068 8.55664C613.068 8.04883 612.898 7.62891 612.558 7.29688C612.223 6.96484 611.801 6.79883 611.293 6.79883C610.797 6.79883 610.385 6.96289 610.057 7.29102C609.732 7.61914 609.57 8.0293 609.57 8.52148Z" fill="white"/>
<path d="M69.7649 300.986V302H64.0871C64.0793 301.746 64.1203 301.502 64.2102 301.268C64.3547 300.881 64.5852 300.5 64.9016 300.125C65.2219 299.75 65.6828 299.316 66.2844 298.824C67.218 298.059 67.8488 297.453 68.177 297.008C68.5051 296.559 68.6691 296.135 68.6691 295.736C68.6691 295.318 68.5188 294.967 68.218 294.682C67.9211 294.393 67.5324 294.248 67.052 294.248C66.5441 294.248 66.1379 294.4 65.8332 294.705C65.5285 295.01 65.3742 295.432 65.3703 295.971L64.2863 295.859C64.3606 295.051 64.6399 294.436 65.1242 294.014C65.6086 293.588 66.259 293.375 67.0754 293.375C67.8996 293.375 68.552 293.604 69.0324 294.061C69.5129 294.518 69.7531 295.084 69.7531 295.76C69.7531 296.104 69.6828 296.441 69.5422 296.773C69.4016 297.105 69.1672 297.455 68.8391 297.822C68.5149 298.189 67.9738 298.693 67.216 299.334C66.5832 299.865 66.177 300.227 65.9973 300.418C65.8176 300.605 65.6691 300.795 65.552 300.986H69.7649ZM70.9016 297.764C70.9016 296.748 71.0051 295.932 71.2121 295.314C71.4231 294.693 71.7336 294.215 72.1438 293.879C72.5578 293.543 73.0774 293.375 73.7024 293.375C74.1633 293.375 74.5676 293.469 74.9152 293.656C75.2629 293.84 75.55 294.107 75.7766 294.459C76.0031 294.807 76.1809 295.232 76.3098 295.736C76.4387 296.236 76.5031 296.912 76.5031 297.764C76.5031 298.771 76.3996 299.586 76.1926 300.207C75.9856 300.824 75.675 301.303 75.2609 301.643C74.8508 301.979 74.3313 302.146 73.7024 302.146C72.8742 302.146 72.2238 301.85 71.7512 301.256C71.1848 300.541 70.9016 299.377 70.9016 297.764ZM71.9856 297.764C71.9856 299.174 72.1496 300.113 72.4777 300.582C72.8098 301.047 73.218 301.279 73.7024 301.279C74.1867 301.279 74.593 301.045 74.9211 300.576C75.2531 300.107 75.4191 299.17 75.4191 297.764C75.4191 296.35 75.2531 295.41 74.9211 294.945C74.593 294.48 74.1828 294.248 73.6906 294.248C73.2063 294.248 72.8195 294.453 72.5305 294.863C72.1672 295.387 71.9856 296.354 71.9856 297.764ZM83.1242 300.986V302H77.4465C77.4387 301.746 77.4797 301.502 77.5695 301.268C77.7141 300.881 77.9445 300.5 78.2609 300.125C78.5813 299.75 79.0422 299.316 79.6438 298.824C80.5774 298.059 81.2082 297.453 81.5363 297.008C81.8645 296.559 82.0285 296.135 82.0285 295.736C82.0285 295.318 81.8781 294.967 81.5774 294.682C81.2805 294.393 80.8918 294.248 80.4113 294.248C79.9035 294.248 79.4973 294.4 79.1926 294.705C78.8879 295.01 78.7336 295.432 78.7297 295.971L77.6457 295.859C77.7199 295.051 77.9992 294.436 78.4836 294.014C78.968 293.588 79.6184 293.375 80.4348 293.375C81.259 293.375 81.9113 293.604 82.3918 294.061C82.8723 294.518 83.1125 295.084 83.1125 295.76C83.1125 296.104 83.0422 296.441 82.9016 296.773C82.7609 297.105 82.5266 297.455 82.1984 297.822C81.8742 298.189 81.3332 298.693 80.5754 299.334C79.9426 299.865 79.5363 300.227 79.3566 300.418C79.177 300.605 79.0285 300.795 78.9113 300.986H83.1242ZM84.2609 297.764C84.2609 296.748 84.3645 295.932 84.5715 295.314C84.7824 294.693 85.093 294.215 85.5031 293.879C85.9172 293.543 86.4367 293.375 87.0617 293.375C87.5227 293.375 87.927 293.469 88.2746 293.656C88.6223 293.84 88.9094 294.107 89.1359 294.459C89.3625 294.807 89.5402 295.232 89.6691 295.736C89.7981 296.236 89.8625 296.912 89.8625 297.764C89.8625 298.771 89.759 299.586 89.552 300.207C89.3449 300.824 89.0344 301.303 88.6203 301.643C88.2102 301.979 87.6906 302.146 87.0617 302.146C86.2336 302.146 85.5832 301.85 85.1106 301.256C84.5441 300.541 84.2609 299.377 84.2609 297.764ZM85.3449 297.764C85.3449 299.174 85.509 300.113 85.8371 300.582C86.1691 301.047 86.5774 301.279 87.0617 301.279C87.5461 301.279 87.9524 301.045 88.2805 300.576C88.6125 300.107 88.7785 299.17 88.7785 297.764C88.7785 296.35 88.6125 295.41 88.2805 294.945C87.9524 294.48 87.5422 294.248 87.05 294.248C86.5656 294.248 86.1789 294.453 85.8899 294.863C85.5266 295.387 85.3449 296.354 85.3449 297.764Z" fill="white" fill-opacity="0.8"/>
<path d="M175.932 300.986V302H170.254C170.246 301.746 170.287 301.502 170.377 301.268C170.521 300.881 170.752 300.5 171.068 300.125C171.389 299.75 171.849 299.316 172.451 298.824C173.385 298.059 174.015 297.453 174.344 297.008C174.672 296.559 174.836 296.135 174.836 295.736C174.836 295.318 174.685 294.967 174.385 294.682C174.088 294.393 173.699 294.248 173.219 294.248C172.711 294.248 172.305 294.4 172 294.705C171.695 295.01 171.541 295.432 171.537 295.971L170.453 295.859C170.527 295.051 170.807 294.436 171.291 294.014C171.775 293.588 172.426 293.375 173.242 293.375C174.066 293.375 174.719 293.604 175.199 294.061C175.68 294.518 175.92 295.084 175.92 295.76C175.92 296.104 175.849 296.441 175.709 296.773C175.568 297.105 175.334 297.455 175.006 297.822C174.682 298.189 174.14 298.693 173.383 299.334C172.75 299.865 172.344 300.227 172.164 300.418C171.984 300.605 171.836 300.795 171.719 300.986H175.932ZM177.068 297.764C177.068 296.748 177.172 295.932 177.379 295.314C177.59 294.693 177.9 294.215 178.31 293.879C178.724 293.543 179.244 293.375 179.869 293.375C180.33 293.375 180.734 293.469 181.082 293.656C181.43 293.84 181.717 294.107 181.943 294.459C182.17 294.807 182.348 295.232 182.476 295.736C182.605 296.236 182.67 296.912 182.67 297.764C182.67 298.771 182.566 299.586 182.359 300.207C182.152 300.824 181.842 301.303 181.428 301.643C181.017 301.979 180.498 302.146 179.869 302.146C179.041 302.146 178.39 301.85 177.918 301.256C177.351 300.541 177.068 299.377 177.068 297.764ZM178.152 297.764C178.152 299.174 178.316 300.113 178.644 300.582C178.976 301.047 179.385 301.279 179.869 301.279C180.353 301.279 180.76 301.045 181.088 300.576C181.42 300.107 181.586 299.17 181.586 297.764C181.586 296.35 181.42 295.41 181.088 294.945C180.76 294.48 180.349 294.248 179.857 294.248C179.373 294.248 178.986 294.453 178.697 294.863C178.334 295.387 178.152 296.354 178.152 297.764ZM189.291 300.986V302H183.613C183.605 301.746 183.646 301.502 183.736 301.268C183.881 300.881 184.111 300.5 184.428 300.125C184.748 299.75 185.209 299.316 185.81 298.824C186.744 298.059 187.375 297.453 187.703 297.008C188.031 296.559 188.195 296.135 188.195 295.736C188.195 295.318 188.045 294.967 187.744 294.682C187.447 294.393 187.058 294.248 186.578 294.248C186.07 294.248 185.664 294.4 185.359 294.705C185.055 295.01 184.9 295.432 184.896 295.971L183.812 295.859C183.887 295.051 184.166 294.436 184.65 294.014C185.135 293.588 185.785 293.375 186.601 293.375C187.426 293.375 188.078 293.604 188.558 294.061C189.039 294.518 189.279 295.084 189.279 295.76C189.279 296.104 189.209 296.441 189.068 296.773C188.928 297.105 188.693 297.455 188.365 297.822C188.041 298.189 187.5 298.693 186.742 299.334C186.109 299.865 185.703 300.227 185.523 300.418C185.344 300.605 185.195 300.795 185.078 300.986H189.291ZM194.4 302H193.346V295.279C193.092 295.521 192.758 295.764 192.344 296.006C191.933 296.248 191.564 296.43 191.236 296.551V295.531C191.826 295.254 192.342 294.918 192.783 294.523C193.224 294.129 193.537 293.746 193.721 293.375H194.4V302Z" fill="white" fill-opacity="0.8"/>
<path d="M282.098 300.986V302H276.42C276.413 301.746 276.454 301.502 276.543 301.268C276.688 300.881 276.918 300.5 277.235 300.125C277.555 299.75 278.016 299.316 278.618 298.824C279.551 298.059 280.182 297.453 280.51 297.008C280.838 296.559 281.002 296.135 281.002 295.736C281.002 295.318 280.852 294.967 280.551 294.682C280.254 294.393 279.866 294.248 279.385 294.248C278.877 294.248 278.471 294.4 278.167 294.705C277.862 295.01 277.708 295.432 277.704 295.971L276.62 295.859C276.694 295.051 276.973 294.436 277.458 294.014C277.942 293.588 278.592 293.375 279.409 293.375C280.233 293.375 280.885 293.604 281.366 294.061C281.846 294.518 282.086 295.084 282.086 295.76C282.086 296.104 282.016 296.441 281.876 296.773C281.735 297.105 281.501 297.455 281.172 297.822C280.848 298.189 280.307 298.693 279.549 299.334C278.917 299.865 278.51 300.227 278.331 300.418C278.151 300.605 278.002 300.795 277.885 300.986H282.098ZM283.235 297.764C283.235 296.748 283.338 295.932 283.545 295.314C283.756 294.693 284.067 294.215 284.477 293.879C284.891 293.543 285.411 293.375 286.036 293.375C286.497 293.375 286.901 293.469 287.249 293.656C287.596 293.84 287.883 294.107 288.11 294.459C288.336 294.807 288.514 295.232 288.643 295.736C288.772 296.236 288.836 296.912 288.836 297.764C288.836 298.771 288.733 299.586 288.526 300.207C288.319 300.824 288.008 301.303 287.594 301.643C287.184 301.979 286.665 302.146 286.036 302.146C285.208 302.146 284.557 301.85 284.084 301.256C283.518 300.541 283.235 299.377 283.235 297.764ZM284.319 297.764C284.319 299.174 284.483 300.113 284.811 300.582C285.143 301.047 285.551 301.279 286.036 301.279C286.52 301.279 286.926 301.045 287.254 300.576C287.586 300.107 287.752 299.17 287.752 297.764C287.752 296.35 287.586 295.41 287.254 294.945C286.926 294.48 286.516 294.248 286.024 294.248C285.54 294.248 285.153 294.453 284.864 294.863C284.501 295.387 284.319 296.354 284.319 297.764ZM295.458 300.986V302H289.78C289.772 301.746 289.813 301.502 289.903 301.268C290.047 300.881 290.278 300.5 290.594 300.125C290.915 299.75 291.376 299.316 291.977 298.824C292.911 298.059 293.542 297.453 293.87 297.008C294.198 296.559 294.362 296.135 294.362 295.736C294.362 295.318 294.211 294.967 293.911 294.682C293.614 294.393 293.225 294.248 292.745 294.248C292.237 294.248 291.831 294.4 291.526 294.705C291.221 295.01 291.067 295.432 291.063 295.971L289.979 295.859C290.053 295.051 290.333 294.436 290.817 294.014C291.301 293.588 291.952 293.375 292.768 293.375C293.592 293.375 294.245 293.604 294.725 294.061C295.206 294.518 295.446 295.084 295.446 295.76C295.446 296.104 295.376 296.441 295.235 296.773C295.094 297.105 294.86 297.455 294.532 297.822C294.208 298.189 293.667 298.693 292.909 299.334C292.276 299.865 291.87 300.227 291.69 300.418C291.51 300.605 291.362 300.795 291.245 300.986H295.458ZM302.137 300.986V302H296.459C296.452 301.746 296.493 301.502 296.583 301.268C296.727 300.881 296.958 300.5 297.274 300.125C297.594 299.75 298.055 299.316 298.657 298.824C299.59 298.059 300.221 297.453 300.549 297.008C300.877 296.559 301.042 296.135 301.042 295.736C301.042 295.318 300.891 294.967 300.59 294.682C300.293 294.393 299.905 294.248 299.424 294.248C298.917 294.248 298.51 294.4 298.206 294.705C297.901 295.01 297.747 295.432 297.743 295.971L296.659 295.859C296.733 295.051 297.012 294.436 297.497 294.014C297.981 293.588 298.631 293.375 299.448 293.375C300.272 293.375 300.924 293.604 301.405 294.061C301.885 294.518 302.126 295.084 302.126 295.76C302.126 296.104 302.055 296.441 301.915 296.773C301.774 297.105 301.54 297.455 301.211 297.822C300.887 298.189 300.346 298.693 299.588 299.334C298.956 299.865 298.549 300.227 298.37 300.418C298.19 300.605 298.042 300.795 297.924 300.986H302.137Z" fill="white" fill-opacity="0.8"/>
<path d="M388.265 300.986V302H382.587C382.579 301.746 382.62 301.502 382.71 301.268C382.855 300.881 383.085 300.5 383.402 300.125C383.722 299.75 384.183 299.316 384.784 298.824C385.718 298.059 386.349 297.453 386.677 297.008C387.005 296.559 387.169 296.135 387.169 295.736C387.169 295.318 387.019 294.967 386.718 294.682C386.421 294.393 386.032 294.248 385.552 294.248C385.044 294.248 384.638 294.4 384.333 294.705C384.029 295.01 383.874 295.432 383.87 295.971L382.786 295.859C382.861 295.051 383.14 294.436 383.624 294.014C384.109 293.588 384.759 293.375 385.575 293.375C386.4 293.375 387.052 293.604 387.532 294.061C388.013 294.518 388.253 295.084 388.253 295.76C388.253 296.104 388.183 296.441 388.042 296.773C387.902 297.105 387.667 297.455 387.339 297.822C387.015 298.189 386.474 298.693 385.716 299.334C385.083 299.865 384.677 300.227 384.497 300.418C384.318 300.605 384.169 300.795 384.052 300.986H388.265ZM389.402 297.764C389.402 296.748 389.505 295.932 389.712 295.314C389.923 294.693 390.234 294.215 390.644 293.879C391.058 293.543 391.577 293.375 392.202 293.375C392.663 293.375 393.068 293.469 393.415 293.656C393.763 293.84 394.05 294.107 394.277 294.459C394.503 294.807 394.681 295.232 394.81 295.736C394.939 296.236 395.003 296.912 395.003 297.764C395.003 298.771 394.9 299.586 394.693 300.207C394.486 300.824 394.175 301.303 393.761 301.643C393.351 301.979 392.831 302.146 392.202 302.146C391.374 302.146 390.724 301.85 390.251 301.256C389.685 300.541 389.402 299.377 389.402 297.764ZM390.486 297.764C390.486 299.174 390.65 300.113 390.978 300.582C391.31 301.047 391.718 301.279 392.202 301.279C392.687 301.279 393.093 301.045 393.421 300.576C393.753 300.107 393.919 299.17 393.919 297.764C393.919 296.35 393.753 295.41 393.421 294.945C393.093 294.48 392.683 294.248 392.191 294.248C391.706 294.248 391.32 294.453 391.03 294.863C390.667 295.387 390.486 296.354 390.486 297.764ZM401.624 300.986V302H395.946C395.939 301.746 395.98 301.502 396.07 301.268C396.214 300.881 396.445 300.5 396.761 300.125C397.081 299.75 397.542 299.316 398.144 298.824C399.077 298.059 399.708 297.453 400.036 297.008C400.364 296.559 400.529 296.135 400.529 295.736C400.529 295.318 400.378 294.967 400.077 294.682C399.78 294.393 399.392 294.248 398.911 294.248C398.404 294.248 397.997 294.4 397.693 294.705C397.388 295.01 397.234 295.432 397.23 295.971L396.146 295.859C396.22 295.051 396.499 294.436 396.984 294.014C397.468 293.588 398.118 293.375 398.935 293.375C399.759 293.375 400.411 293.604 400.892 294.061C401.372 294.518 401.613 295.084 401.613 295.76C401.613 296.104 401.542 296.441 401.402 296.773C401.261 297.105 401.027 297.455 400.698 297.822C400.374 298.189 399.833 298.693 399.075 299.334C398.443 299.865 398.036 300.227 397.857 300.418C397.677 300.605 397.529 300.795 397.411 300.986H401.624ZM402.767 299.732L403.821 299.592C403.943 300.189 404.148 300.621 404.437 300.887C404.73 301.148 405.085 301.279 405.503 301.279C405.999 301.279 406.417 301.107 406.757 300.764C407.101 300.42 407.273 299.994 407.273 299.486C407.273 299.002 407.114 298.604 406.798 298.291C406.482 297.975 406.079 297.816 405.591 297.816C405.392 297.816 405.144 297.855 404.847 297.934L404.964 297.008C405.034 297.016 405.091 297.02 405.134 297.02C405.583 297.02 405.988 296.902 406.347 296.668C406.706 296.434 406.886 296.072 406.886 295.584C406.886 295.197 406.755 294.877 406.493 294.623C406.232 294.369 405.894 294.242 405.48 294.242C405.07 294.242 404.728 294.371 404.454 294.629C404.181 294.887 404.005 295.273 403.927 295.789L402.872 295.602C403.001 294.895 403.294 294.348 403.751 293.961C404.208 293.57 404.777 293.375 405.456 293.375C405.925 293.375 406.357 293.477 406.751 293.68C407.146 293.879 407.446 294.152 407.654 294.5C407.864 294.848 407.97 295.217 407.97 295.607C407.97 295.979 407.87 296.316 407.671 296.621C407.472 296.926 407.177 297.168 406.786 297.348C407.294 297.465 407.689 297.709 407.97 298.08C408.251 298.447 408.392 298.908 408.392 299.463C408.392 300.213 408.118 300.85 407.571 301.373C407.025 301.893 406.333 302.152 405.497 302.152C404.743 302.152 404.116 301.928 403.616 301.479C403.12 301.029 402.837 300.447 402.767 299.732Z" fill="white" fill-opacity="0.8"/>
<path d="M494.431 300.986V302H488.754C488.746 301.746 488.787 301.502 488.877 301.268C489.021 300.881 489.252 300.5 489.568 300.125C489.889 299.75 490.349 299.316 490.951 298.824C491.885 298.059 492.515 297.453 492.844 297.008C493.172 296.559 493.336 296.135 493.336 295.736C493.336 295.318 493.185 294.967 492.885 294.682C492.588 294.393 492.199 294.248 491.719 294.248C491.211 294.248 490.805 294.4 490.5 294.705C490.195 295.01 490.041 295.432 490.037 295.971L488.953 295.859C489.027 295.051 489.306 294.436 489.791 294.014C490.275 293.588 490.926 293.375 491.742 293.375C492.566 293.375 493.219 293.604 493.699 294.061C494.18 294.518 494.42 295.084 494.42 295.76C494.42 296.104 494.349 296.441 494.209 296.773C494.068 297.105 493.834 297.455 493.506 297.822C493.181 298.189 492.64 298.693 491.883 299.334C491.25 299.865 490.844 300.227 490.664 300.418C490.484 300.605 490.336 300.795 490.219 300.986H494.431ZM495.568 297.764C495.568 296.748 495.672 295.932 495.879 295.314C496.09 294.693 496.4 294.215 496.81 293.879C497.224 293.543 497.744 293.375 498.369 293.375C498.83 293.375 499.234 293.469 499.582 293.656C499.93 293.84 500.217 294.107 500.443 294.459C500.67 294.807 500.847 295.232 500.976 295.736C501.105 296.236 501.17 296.912 501.17 297.764C501.17 298.771 501.066 299.586 500.859 300.207C500.652 300.824 500.342 301.303 499.928 301.643C499.517 301.979 498.998 302.146 498.369 302.146C497.541 302.146 496.89 301.85 496.418 301.256C495.851 300.541 495.568 299.377 495.568 297.764ZM496.652 297.764C496.652 299.174 496.816 300.113 497.144 300.582C497.476 301.047 497.885 301.279 498.369 301.279C498.853 301.279 499.26 301.045 499.588 300.576C499.92 300.107 500.086 299.17 500.086 297.764C500.086 296.35 499.92 295.41 499.588 294.945C499.26 294.48 498.849 294.248 498.357 294.248C497.873 294.248 497.486 294.453 497.197 294.863C496.834 295.387 496.652 296.354 496.652 297.764ZM507.791 300.986V302H502.113C502.105 301.746 502.146 301.502 502.236 301.268C502.381 300.881 502.611 300.5 502.928 300.125C503.248 299.75 503.709 299.316 504.31 298.824C505.244 298.059 505.875 297.453 506.203 297.008C506.531 296.559 506.695 296.135 506.695 295.736C506.695 295.318 506.545 294.967 506.244 294.682C505.947 294.393 505.558 294.248 505.078 294.248C504.57 294.248 504.164 294.4 503.859 294.705C503.555 295.01 503.4 295.432 503.396 295.971L502.312 295.859C502.387 295.051 502.666 294.436 503.15 294.014C503.635 293.588 504.285 293.375 505.101 293.375C505.926 293.375 506.578 293.604 507.058 294.061C507.539 294.518 507.779 295.084 507.779 295.76C507.779 296.104 507.709 296.441 507.568 296.773C507.428 297.105 507.193 297.455 506.865 297.822C506.541 298.189 506 298.693 505.242 299.334C504.609 299.865 504.203 300.227 504.023 300.418C503.844 300.605 503.695 300.795 503.578 300.986H507.791ZM512.308 302V299.943H508.582V298.977L512.502 293.41H513.363V298.977H514.523V299.943H513.363V302H512.308ZM512.308 298.977V295.104L509.619 298.977H512.308Z" fill="white" fill-opacity="0.8"/>
<path d="M600.598 300.986V302H594.92C594.913 301.746 594.954 301.502 595.043 301.268C595.188 300.881 595.418 300.5 595.735 300.125C596.055 299.75 596.516 299.316 597.118 298.824C598.051 298.059 598.682 297.453 599.01 297.008C599.338 296.559 599.502 296.135 599.502 295.736C599.502 295.318 599.352 294.967 599.051 294.682C598.754 294.393 598.366 294.248 597.885 294.248C597.377 294.248 596.971 294.4 596.667 294.705C596.362 295.01 596.208 295.432 596.204 295.971L595.12 295.859C595.194 295.051 595.473 294.436 595.958 294.014C596.442 293.588 597.092 293.375 597.909 293.375C598.733 293.375 599.385 293.604 599.866 294.061C600.346 294.518 600.586 295.084 600.586 295.76C600.586 296.104 600.516 296.441 600.376 296.773C600.235 297.105 600.001 297.455 599.672 297.822C599.348 298.189 598.807 298.693 598.049 299.334C597.417 299.865 597.01 300.227 596.831 300.418C596.651 300.605 596.502 300.795 596.385 300.986H600.598ZM601.735 297.764C601.735 296.748 601.838 295.932 602.045 295.314C602.256 294.693 602.567 294.215 602.977 293.879C603.391 293.543 603.911 293.375 604.536 293.375C604.997 293.375 605.401 293.469 605.749 293.656C606.096 293.84 606.383 294.107 606.61 294.459C606.836 294.807 607.014 295.232 607.143 295.736C607.272 296.236 607.336 296.912 607.336 297.764C607.336 298.771 607.233 299.586 607.026 300.207C606.819 300.824 606.508 301.303 606.094 301.643C605.684 301.979 605.165 302.146 604.536 302.146C603.708 302.146 603.057 301.85 602.584 301.256C602.018 300.541 601.735 299.377 601.735 297.764ZM602.819 297.764C602.819 299.174 602.983 300.113 603.311 300.582C603.643 301.047 604.051 301.279 604.536 301.279C605.02 301.279 605.426 301.045 605.754 300.576C606.086 300.107 606.252 299.17 606.252 297.764C606.252 296.35 606.086 295.41 605.754 294.945C605.426 294.48 605.016 294.248 604.524 294.248C604.04 294.248 603.653 294.453 603.364 294.863C603.001 295.387 602.819 296.354 602.819 297.764ZM613.958 300.986V302H608.28C608.272 301.746 608.313 301.502 608.403 301.268C608.547 300.881 608.778 300.5 609.094 300.125C609.415 299.75 609.876 299.316 610.477 298.824C611.411 298.059 612.042 297.453 612.37 297.008C612.698 296.559 612.862 296.135 612.862 295.736C612.862 295.318 612.711 294.967 612.411 294.682C612.114 294.393 611.725 294.248 611.245 294.248C610.737 294.248 610.331 294.4 610.026 294.705C609.721 295.01 609.567 295.432 609.563 295.971L608.479 295.859C608.553 295.051 608.833 294.436 609.317 294.014C609.801 293.588 610.452 293.375 611.268 293.375C612.092 293.375 612.745 293.604 613.225 294.061C613.706 294.518 613.946 295.084 613.946 295.76C613.946 296.104 613.876 296.441 613.735 296.773C613.594 297.105 613.36 297.455 613.032 297.822C612.708 298.189 612.167 298.693 611.409 299.334C610.776 299.865 610.37 300.227 610.19 300.418C610.01 300.605 609.862 300.795 609.745 300.986H613.958ZM615.094 299.75L616.202 299.656C616.284 300.195 616.473 300.602 616.77 300.875C617.071 301.145 617.432 301.279 617.854 301.279C618.362 301.279 618.792 301.088 619.143 300.705C619.495 300.322 619.67 299.814 619.67 299.182C619.67 298.58 619.501 298.105 619.161 297.758C618.825 297.41 618.383 297.236 617.836 297.236C617.497 297.236 617.19 297.314 616.917 297.471C616.643 297.623 616.428 297.822 616.272 298.068L615.282 297.939L616.114 293.527H620.385V294.535H616.958L616.495 296.844C617.01 296.484 617.551 296.305 618.118 296.305C618.868 296.305 619.501 296.564 620.016 297.084C620.532 297.604 620.79 298.271 620.79 299.088C620.79 299.865 620.563 300.537 620.11 301.104C619.559 301.799 618.807 302.146 617.854 302.146C617.073 302.146 616.434 301.928 615.938 301.49C615.446 301.053 615.165 300.473 615.094 299.75Z" fill="white" fill-opacity="0.8"/>
<defs>
<filter id="filter0_ddd_59_2024" x="57.0777" y="8.66614" width="568.75" height="204.363" filterUnits="userSpaceOnUse" color-interpolation-filters="sRGB">
<feFlood flood-opacity="0" result="BackgroundImageFix"/>
<feColorMatrix in="SourceAlpha" type="matrix" values="0 0 0 0 0 0 0 0 0 0 0 0 0 0 0 0 0 0 127 0" result="hardAlpha"/>
<feOffset dy="3"/>
<feGaussianBlur stdDeviation="1.5"/>
<feColorMatrix type="matrix" values="0 0 0 0 0.537451 0 0 0 0 0.474902 0 0 0 0 1 0 0 0 0.4 0"/>
<feBlend mode="normal" in2="BackgroundImageFix" result="effect1_dropShadow_59_2024"/>
<feColorMatrix in="SourceAlpha" type="matrix" values="0 0 0 0 0 0 0 0 0 0 0 0 0 0 0 0 0 0 127 0" result="hardAlpha"/>
<feOffset dy="6"/>
<feGaussianBlur stdDeviation="4.5"/>
<feColorMatrix type="matrix" values="0 0 0 0 0.537451 0 0 0 0 0.474902 0 0 0 0 1 0 0 0 0.4 0"/>
<feBlend mode="normal" in2="effect1_dropShadow_59_2024" result="effect2_dropShadow_59_2024"/>
<feColorMatrix in="SourceAlpha" type="matrix" values="0 0 0 0 0 0 0 0 0 0 0 0 0 0 0 0 0 0 127 0" result="hardAlpha"/>
<feOffset dy="9"/>
<feGaussianBlur stdDeviation="9"/>
<feColorMatrix type="matrix" values="0 0 0 0 0.537451 0 0 0 0 0.474902 0 0 0 0 1 0 0 0 0.4 0"/>
<feBlend mode="normal" in2="effect2_dropShadow_59_2024" result="effect3_dropShadow_59_2024"/>
<feBlend mode="normal" in="SourceGraphic" in2="effect3_dropShadow_59_2024" result="shape"/>
</filter>
<linearGradient id="paint0_linear_59_2024" x1="341.5" y1="18.16" x2="341.5" y2="286" gradientUnits="userSpaceOnUse">
<stop stop-color="#5300D0" stop-opacity="0.3"/>
<stop offset="1" stop-color="#5300D0" stop-opacity="0.05"/>
</linearGradient>
</defs>
</svg>
