<svg width="215" height="74" viewBox="0 0 215 74" fill="none" xmlns="http://www.w3.org/2000/svg">
<ellipse cx="36.9999" cy="37" rx="37" ry="37" fill="#5300D0" fill-opacity="0.7"/>
<g style="mix-blend-mode:luminosity">
<path d="M37.2644 5.22858C54.0434 5.22869 67.7146 19.4136 67.7146 37.0001C67.7145 54.5865 54.0434 68.7714 37.2644 68.7715C20.4853 68.7715 6.8142 54.5866 6.81418 37.0001C6.81418 19.4135 20.4853 5.22858 37.2644 5.22858ZM48.2702 40.2296C47.8418 40.2295 47.4281 40.3692 47.0866 40.6221H47.0857L44.0798 42.8536C43.9241 42.9689 43.7567 43.0644 43.5827 43.1368L43.5818 43.1378L38.5925 45.2169L38.5915 45.2178C37.8176 45.5415 37.3396 46.305 37.3396 47.1221V48.4688C37.3394 48.7333 37.3892 48.9966 37.487 49.2432C37.5604 49.4281 37.6598 49.6022 37.7829 49.7589L37.9148 49.9102L39.4255 51.4844C39.9894 52.0719 40.7637 52.4111 41.5808 52.4112H42.8923C43.1435 52.4112 43.3932 52.3786 43.6374 52.3145L46.3337 51.6124C46.7284 51.5096 47.1416 51.5157 47.5339 51.629C47.9264 51.7423 48.2888 51.9605 48.5837 52.2676L50.2331 53.9874C50.7971 54.575 51.5721 54.9141 52.3894 54.9141H54.3122C55.1292 54.914 55.9036 54.5748 56.4675 53.9874L57.6814 52.7227C58.244 52.1364 58.5544 51.3485 58.5544 50.5352V49.5352H58.5534V47.2842C58.5533 46.4712 58.2428 45.6839 57.6804 45.0977L56.1696 43.5235C56.1668 43.5205 56.1619 43.5148 56.1579 43.5049C56.1539 43.4948 56.1511 43.4822 56.1511 43.4688V41.7598C56.1511 40.9547 55.5151 40.2316 54.6443 40.2315H53.8757C53.1773 40.2315 52.6033 40.7083 52.4255 41.3419V41.3438L52.0866 42.5567L51.6696 41.5108C51.3673 40.7521 50.6397 40.2296 49.8034 40.2296H48.2702ZM37.2644 9.57135C22.6886 9.57135 10.9011 21.9143 10.9011 37.0001C10.9011 38.5083 11.0495 39.9665 11.2693 41.3809L11.4011 42.2276H20.1921C21.0094 42.2276 21.7844 41.8875 22.3484 41.2999L24.8122 38.7325C24.8139 38.735 24.8167 38.7382 24.8191 38.7432L27.6872 44.7198C28.1902 45.7696 29.2341 46.4569 30.403 46.4571H31.1784C32.8901 46.457 34.2077 45.024 34.2077 43.3428V42.1046C34.2077 41.2913 33.8963 40.5043 33.3337 39.918L32.6159 39.17C32.6083 39.1619 32.5984 39.1444 32.5984 39.1153C32.5984 39.0858 32.6082 39.0676 32.6159 39.0596L33.3337 38.3126C33.5306 38.1074 33.7886 38.0001 34.0466 38.0001H34.0866C35.1702 37.9999 36.155 37.4076 36.6931 36.4727L38.5593 33.2296C38.9203 33.5677 39.3995 33.7715 39.9196 33.7715H40.3073C41.4585 33.7715 42.322 32.8111 42.322 31.7139V21.3917C42.322 20.2341 41.6947 19.151 40.6628 18.6133L39.2898 17.8985H39.2907C39.2839 17.8949 39.2817 17.8931 39.279 17.8887C39.2747 17.8816 39.2686 17.8668 39.2673 17.8458C39.2661 17.8248 39.2708 17.8083 39.2751 17.7989C39.2781 17.7923 39.2812 17.7873 39.2898 17.7813L39.3171 17.7628L39.3435 17.7413L45.7048 12.6495L47.1316 11.5079L45.4001 10.9219C42.8381 10.055 40.1064 9.57137 37.2644 9.57135Z" stroke="black" stroke-width="2"/>
</g>
<path d="M38.0799 39.01C38.0799 38.98 38.0799 38.98 38.0799 38.95V33.16C38.0799 32.86 38.0799 32.56 38.1099 32.29C38.1099 32.2 38.1099 32.14 38.1399 32.05C38.1699 31.78 38.1999 31.51 38.2599 31.24C38.2599 31.18 38.2599 31.12 38.2899 31.06C38.4699 30.22 38.7399 29.47 39.1599 28.78C39.1599 28.72 39.1899 28.69 39.2199 28.66C39.3399 28.45 39.4899 28.24 39.6399 28.06C39.6699 28 39.7299 27.94 39.7599 27.91C40.4499 27.07 41.3199 26.38 42.3999 25.87C42.4599 25.84 42.5199 25.81 42.5799 25.78C42.8199 25.66 43.0899 25.57 43.3599 25.48C43.4199 25.45 43.4799 25.42 43.5399 25.42C44.4399 25.09 45.4299 24.88 46.5699 24.73C46.5999 24.73 46.6599 24.73 46.6899 24.73C47.0499 24.67 47.4099 24.64 47.7999 24.64C47.8899 24.64 47.9799 24.61 48.0699 24.61C48.4599 24.61 48.8499 24.58 49.2399 24.58H56.1999C59.9499 24.55 62.8299 25.24 64.7799 26.65C64.8699 26.71 64.9599 26.8 65.0499 26.86C65.1999 27.01 65.3499 27.13 65.4999 27.28C65.6499 27.4 65.7399 27.52 65.8599 27.67C65.9499 27.76 66.0699 27.85 66.1299 27.97C66.2799 28.12 66.3999 28.3 66.5199 28.48C66.5799 28.57 66.6399 28.66 66.6699 28.72C66.7899 28.93 66.9099 29.17 66.9999 29.38C67.0299 29.44 67.0599 29.53 67.0899 29.59C67.2099 29.83 67.2999 30.1 67.3899 30.37C67.3899 30.4 67.4199 30.46 67.4199 30.49C67.5099 30.79 67.5699 31.09 67.6299 31.39C67.6299 31.42 67.6299 31.45 67.6299 31.51C67.6899 31.81 67.7199 32.14 67.7499 32.5V32.53V33.43H60.9099C60.8799 33.28 60.8499 33.13 60.7899 32.95C60.7899 32.95 60.7899 32.92 60.7599 32.89C60.7299 32.74 60.6699 32.62 60.6099 32.47C60.6099 32.44 60.5799 32.41 60.5799 32.38C60.5199 32.26 60.4599 32.14 60.3999 32.02C60.3699 31.99 60.3399 31.93 60.3099 31.9C60.2499 31.81 60.1899 31.72 60.0999 31.63C60.0699 31.57 60.0099 31.51 59.9799 31.45C59.9199 31.39 59.8599 31.33 59.7699 31.24C59.7099 31.18 59.6199 31.12 59.5299 31.03C59.4699 31 59.4399 30.97 59.3799 30.91C58.3599 30.16 56.8299 29.8 54.8199 29.83H50.7999C50.5899 29.83 50.3799 29.83 50.1699 29.86C50.1099 29.86 50.0799 29.86 50.0199 29.86C49.8399 29.86 49.6299 29.89 49.4499 29.89C49.4199 29.89 49.3899 29.92 49.3599 29.92C48.7599 29.98 48.2499 30.1 47.7699 30.28C47.7399 30.28 47.7099 30.28 47.6799 30.28C47.5299 30.34 47.3799 30.4 47.2599 30.46C47.2299 30.49 47.1999 30.49 47.1699 30.52C46.5999 30.79 46.1199 31.15 45.7599 31.57C45.7299 31.6 45.7299 31.63 45.6999 31.66C45.6099 31.78 45.5499 31.87 45.4899 31.99C45.4599 31.99 45.4599 32.02 45.4299 32.05C45.2199 32.41 45.0699 32.83 44.9799 33.28C44.9799 33.28 44.9799 33.31 44.9499 33.34C44.9199 33.49 44.9199 33.64 44.8899 33.79C44.8899 33.82 44.8899 33.88 44.8899 33.91C44.8899 34.06 44.8599 34.21 44.8599 34.39L44.8899 37.45C44.8899 37.45 44.8899 37.45 44.8899 37.48C44.8899 37.66 44.9199 37.81 44.9499 37.99C44.9499 38.02 44.9499 38.02 44.9499 38.05C44.9799 38.2 45.0099 38.38 45.0399 38.53C45.0699 38.56 45.0699 38.59 45.0699 38.59C45.1299 38.74 45.1599 38.89 45.2199 39.01C45.2499 39.04 45.2499 39.07 45.2799 39.1C45.3399 39.22 45.3699 39.34 45.4599 39.46C45.4899 39.49 45.5199 39.55 45.5499 39.58C45.6099 39.67 45.6699 39.79 45.7299 39.88C45.7899 39.91 45.8199 39.97 45.8799 40.03C45.9399 40.09 45.9999 40.18 46.0599 40.24C46.1499 40.3 46.2399 40.39 46.3299 40.45C46.3599 40.48 46.4199 40.54 46.4499 40.57C47.4999 41.32 49.0299 41.68 51.0099 41.65H55.0599C55.2699 41.65 55.4799 41.65 55.6899 41.65C55.7199 41.65 55.7799 41.65 55.8099 41.62C56.0199 41.62 56.2299 41.62 56.4099 41.59C56.4399 41.59 56.4399 41.59 56.4699 41.59C57.0699 41.5 57.6099 41.38 58.0899 41.23C58.1199 41.2 58.1499 41.2 58.1799 41.2C58.3299 41.14 58.4499 41.08 58.5999 41.02C58.6299 41.02 58.6599 40.99 58.6899 40.99C59.2599 40.69 59.7399 40.33 60.0999 39.91C60.0999 39.88 60.1299 39.85 60.1599 39.82C60.2199 39.73 60.3099 39.61 60.3699 39.49C60.3699 39.49 60.3999 39.46 60.3999 39.43C60.6099 39.07 60.7599 38.68 60.8799 38.23C60.8799 38.2 60.8799 38.17 60.8799 38.14C60.8799 38.11 60.8799 38.08 60.9099 38.05H67.7799V38.32C67.7799 38.62 67.7499 38.92 67.7499 39.22C67.7199 39.28 67.7199 39.37 67.7199 39.43C67.6899 39.73 67.6599 40 67.5999 40.24C67.5999 40.3 67.5699 40.36 67.5699 40.42C67.3899 41.26 67.0899 42.04 66.6999 42.7C66.6699 42.76 66.6399 42.79 66.6399 42.85C66.4899 43.03 66.3699 43.24 66.2199 43.45C66.1599 43.48 66.1299 43.54 66.0999 43.6C65.4099 44.41 64.5399 45.1 63.4599 45.61C63.3999 45.64 63.3399 45.67 63.2799 45.7C63.0099 45.82 62.7699 45.91 62.4699 46.03C62.4399 46.03 62.3799 46.06 62.3199 46.09C61.4199 46.39 60.3999 46.6 59.2899 46.75C59.2299 46.75 59.1999 46.75 59.1399 46.75C58.7799 46.81 58.4199 46.84 58.0599 46.87C57.9699 46.87 57.8799 46.87 57.7899 46.87C57.3999 46.9 57.0099 46.9 56.5899 46.9H49.6599C45.9099 46.96 43.0299 46.27 41.0799 44.83C40.9899 44.77 40.8999 44.68 40.8099 44.62C40.6599 44.5 40.4799 44.35 40.3299 44.23C40.2099 44.11 40.0899 43.96 39.9699 43.84C39.8799 43.72 39.7899 43.63 39.6999 43.54C39.5799 43.36 39.4599 43.18 39.3399 43C39.2799 42.91 39.2199 42.85 39.1599 42.76C39.0399 42.55 38.9499 42.34 38.8299 42.1C38.7999 42.04 38.7699 41.98 38.7399 41.92C38.6499 41.65 38.5599 41.41 38.4699 41.14C38.4399 41.08 38.4399 41.05 38.4099 40.99C38.3499 40.69 38.2599 40.42 38.2299 40.09C38.1999 40.06 38.1999 40.03 38.1999 40C38.1399 39.67 38.1099 39.34 38.0799 39.01ZM98.6698 32.5V32.53V38.32C98.6698 38.62 98.6698 38.92 98.6398 39.22C98.6398 39.28 98.6398 39.37 98.6098 39.43C98.5798 39.73 98.5498 40 98.4898 40.24C98.4898 40.3 98.4898 40.36 98.4598 40.42C98.2798 41.26 98.0098 42.04 97.5898 42.7C97.5598 42.76 97.5598 42.79 97.5298 42.85C97.4098 43.03 97.2598 43.24 97.1098 43.45C97.0798 43.48 97.0198 43.54 96.9898 43.6C96.2998 44.41 95.4298 45.1 94.3498 45.61C94.2898 45.64 94.2298 45.67 94.1698 45.7C93.9298 45.82 93.6598 45.91 93.3898 46.03C93.3298 46.03 93.2698 46.06 93.2098 46.09C92.3098 46.39 91.3198 46.6 90.1798 46.75C90.1498 46.75 90.0898 46.75 90.0298 46.75C89.6998 46.81 89.3398 46.84 88.9498 46.84C88.8598 46.87 88.7698 46.87 88.6798 46.87C88.2898 46.9 87.8998 46.9 87.5098 46.9H81.3298C77.5798 46.96 74.6998 46.24 72.7498 44.83C72.6598 44.77 72.5698 44.68 72.4798 44.62C72.3298 44.5 72.1498 44.35 71.9998 44.23C71.8798 44.11 71.7598 43.96 71.6398 43.84C71.5498 43.72 71.4598 43.63 71.3698 43.54C71.2498 43.36 71.1298 43.18 71.0098 43C70.9498 42.91 70.8898 42.85 70.8298 42.76C70.7098 42.55 70.6198 42.34 70.4998 42.1C70.4698 42.04 70.4398 41.98 70.4098 41.92C70.3198 41.65 70.2298 41.41 70.1398 41.14C70.1098 41.08 70.1098 41.05 70.0798 40.99C70.0198 40.69 69.9298 40.42 69.8998 40.09C69.8698 40.06 69.8698 40.03 69.8698 40C69.8098 39.67 69.7798 39.34 69.7498 39.01C69.7498 38.98 69.7498 38.98 69.7498 38.95V33.16C69.7498 32.86 69.7498 32.56 69.7798 32.29C69.7798 32.2 69.7798 32.14 69.8098 32.05C69.8398 31.78 69.8698 31.51 69.9298 31.24C69.9298 31.18 69.9298 31.12 69.9598 31.06C70.1398 30.22 70.4098 29.47 70.8298 28.78C70.8298 28.72 70.8598 28.69 70.8898 28.66C71.0098 28.45 71.1598 28.24 71.3098 28.06C71.3398 28 71.3998 27.94 71.4298 27.91C72.1198 27.07 72.9898 26.38 74.0698 25.87C74.1298 25.84 74.1898 25.81 74.2498 25.78C74.4898 25.66 74.7598 25.57 75.0298 25.45C75.0898 25.45 75.1498 25.42 75.2098 25.42C76.1098 25.09 77.0998 24.88 78.2398 24.73C78.2698 24.73 78.3298 24.73 78.3598 24.73C78.7198 24.67 79.0798 24.64 79.4698 24.64C79.5598 24.64 79.6498 24.61 79.7398 24.61C80.1298 24.61 80.5198 24.58 80.9098 24.58H87.0898C90.8398 24.55 93.7198 25.24 95.6698 26.65C95.7598 26.71 95.8498 26.8 95.9398 26.86C96.0898 27.01 96.2698 27.13 96.4198 27.28C96.5398 27.4 96.6598 27.52 96.7798 27.64C96.8698 27.76 96.9598 27.85 97.0498 27.97C97.1698 28.12 97.2898 28.3 97.4098 28.48C97.4698 28.57 97.5298 28.66 97.5898 28.72C97.7098 28.93 97.7998 29.17 97.9198 29.38C97.9498 29.44 97.9798 29.5 98.0098 29.59C98.0998 29.83 98.1898 30.1 98.2798 30.34C98.3098 30.4 98.3098 30.46 98.3398 30.49C98.3998 30.79 98.4598 31.09 98.5198 31.39C98.5198 31.42 98.5498 31.45 98.5498 31.51C98.6098 31.81 98.6398 32.14 98.6698 32.5ZM91.8598 37.57C91.8598 37.42 91.8898 37.27 91.8898 37.12L91.8598 34.03C91.8598 33.85 91.8298 33.67 91.7998 33.49C91.7998 33.46 91.7998 33.46 91.7998 33.43C91.7698 33.28 91.7398 33.1 91.6798 32.95C91.6798 32.95 91.6798 32.92 91.6798 32.89C91.6198 32.74 91.5898 32.62 91.5298 32.47C91.4998 32.44 91.4998 32.41 91.4698 32.38C91.4098 32.26 91.3498 32.14 91.2898 32.02C91.2598 31.99 91.2298 31.93 91.1998 31.9C91.1398 31.81 91.0798 31.72 91.0198 31.63C90.9598 31.57 90.9298 31.51 90.8698 31.45C90.8098 31.39 90.7498 31.3 90.6898 31.24C90.5998 31.18 90.5098 31.12 90.4198 31.03C90.3898 31 90.3298 30.97 90.2998 30.91C89.2498 30.16 87.7198 29.8 85.7398 29.83H82.4698C82.2598 29.83 82.0498 29.83 81.8398 29.83C81.7798 29.86 81.7498 29.86 81.6898 29.86C81.5098 29.86 81.2998 29.89 81.1198 29.89C81.0898 29.89 81.0598 29.92 81.0298 29.92C80.4298 29.98 79.9198 30.1 79.4398 30.25C79.4098 30.28 79.3798 30.28 79.3498 30.28C79.1998 30.34 79.0498 30.4 78.9298 30.46C78.8998 30.49 78.8698 30.49 78.8398 30.52C78.2698 30.79 77.7898 31.15 77.4298 31.57C77.3998 31.6 77.3998 31.63 77.3698 31.66C77.2798 31.75 77.2198 31.87 77.1598 31.99C77.1298 31.99 77.1298 32.02 77.0998 32.05C76.8898 32.41 76.7398 32.83 76.6498 33.25C76.6498 33.28 76.6498 33.31 76.6198 33.34C76.5898 33.49 76.5898 33.64 76.5598 33.79C76.5598 33.82 76.5598 33.85 76.5598 33.91C76.5298 34.06 76.5298 34.21 76.5298 34.39L76.5598 37.45C76.5598 37.45 76.5598 37.45 76.5598 37.48C76.5598 37.66 76.5898 37.81 76.6198 37.99C76.6198 38.02 76.6198 38.02 76.6198 38.05C76.6498 38.2 76.6798 38.38 76.7098 38.53C76.7398 38.56 76.7398 38.56 76.7398 38.59C76.7998 38.74 76.8298 38.89 76.8898 39.01C76.9198 39.04 76.9198 39.07 76.9498 39.1C77.0098 39.22 77.0398 39.34 77.1298 39.46C77.1598 39.49 77.1898 39.55 77.1898 39.58C77.2798 39.67 77.3398 39.79 77.3998 39.88C77.4598 39.91 77.4898 39.97 77.5498 40.03C77.6098 40.09 77.6698 40.18 77.7298 40.24C77.8198 40.3 77.9098 40.39 77.9998 40.45C78.0298 40.48 78.0898 40.54 78.1198 40.57C79.1698 41.32 80.6998 41.68 82.6798 41.65H85.9498C86.1598 41.65 86.3698 41.65 86.5798 41.65C86.6398 41.65 86.6698 41.65 86.7298 41.62C86.9098 41.62 87.1198 41.59 87.2998 41.59C87.3298 41.59 87.3598 41.59 87.3898 41.56C87.9598 41.5 88.4998 41.38 88.9798 41.23C89.0098 41.2 89.0398 41.2 89.0698 41.2C89.2198 41.14 89.3698 41.08 89.4898 41.02C89.5198 41.02 89.5498 40.99 89.5798 40.96C90.1498 40.69 90.6298 40.33 90.9898 39.91C91.0198 39.88 91.0198 39.85 91.0498 39.82C91.1398 39.73 91.1998 39.61 91.2598 39.49C91.2898 39.49 91.2898 39.46 91.3198 39.43C91.5298 39.07 91.6798 38.68 91.7698 38.23C91.7698 38.2 91.7698 38.17 91.7998 38.14C91.7998 37.99 91.8298 37.84 91.8598 37.69C91.8598 37.66 91.8598 37.63 91.8598 37.57ZM126.753 24.58H137.673V46.9H130.893V30.34L123.183 44.68L122.013 46.9H119.583H117.183L115.983 44.68L108.303 30.34V46.9H101.523V24.58H112.413L119.583 37.96L126.753 24.58ZM169.451 32.5V32.53V38.32C169.451 38.62 169.451 38.92 169.421 39.22C169.421 39.28 169.421 39.37 169.391 39.43C169.361 39.73 169.331 40 169.271 40.24C169.271 40.3 169.271 40.36 169.241 40.42C169.061 41.26 168.791 42.04 168.371 42.7C168.341 42.76 168.341 42.79 168.311 42.85C168.191 43.03 168.041 43.24 167.891 43.45C167.861 43.48 167.801 43.54 167.771 43.6C167.081 44.41 166.211 45.1 165.131 45.61C165.071 45.64 165.011 45.67 164.951 45.7C164.711 45.82 164.441 45.91 164.171 46.03C164.111 46.03 164.051 46.06 163.991 46.09C163.091 46.39 162.101 46.6 160.961 46.75C160.931 46.75 160.871 46.75 160.811 46.75C160.481 46.81 160.121 46.84 159.731 46.84C159.641 46.87 159.551 46.87 159.461 46.87C159.071 46.9 158.681 46.9 158.291 46.9H152.111C148.361 46.96 145.481 46.24 143.531 44.83C143.441 44.77 143.351 44.68 143.261 44.62C143.111 44.5 142.931 44.35 142.781 44.23C142.661 44.11 142.541 43.96 142.421 43.84C142.331 43.72 142.241 43.63 142.151 43.54C142.031 43.36 141.911 43.18 141.791 43C141.731 42.91 141.671 42.85 141.611 42.76C141.491 42.55 141.401 42.34 141.281 42.1C141.251 42.04 141.221 41.98 141.191 41.92C141.101 41.65 141.011 41.41 140.921 41.14C140.891 41.08 140.891 41.05 140.861 40.99C140.801 40.69 140.711 40.42 140.681 40.09C140.651 40.06 140.651 40.03 140.651 40C140.591 39.67 140.561 39.34 140.531 39.01C140.531 38.98 140.531 38.98 140.531 38.95V33.16C140.531 32.86 140.531 32.56 140.561 32.29C140.561 32.2 140.561 32.14 140.591 32.05C140.621 31.78 140.651 31.51 140.711 31.24C140.711 31.18 140.711 31.12 140.741 31.06C140.921 30.22 141.191 29.47 141.611 28.78C141.611 28.72 141.641 28.69 141.671 28.66C141.791 28.45 141.941 28.24 142.091 28.06C142.121 28 142.181 27.94 142.211 27.91C142.901 27.07 143.771 26.38 144.851 25.87C144.911 25.84 144.971 25.81 145.031 25.78C145.271 25.66 145.541 25.57 145.811 25.45C145.871 25.45 145.931 25.42 145.991 25.42C146.891 25.09 147.881 24.88 149.021 24.73C149.051 24.73 149.111 24.73 149.141 24.73C149.501 24.67 149.861 24.64 150.251 24.64C150.341 24.64 150.431 24.61 150.521 24.61C150.911 24.61 151.301 24.58 151.691 24.58H157.871C161.621 24.55 164.501 25.24 166.451 26.65C166.541 26.71 166.631 26.8 166.721 26.86C166.871 27.01 167.051 27.13 167.201 27.28C167.321 27.4 167.441 27.52 167.561 27.64C167.651 27.76 167.741 27.85 167.831 27.97C167.951 28.12 168.071 28.3 168.191 28.48C168.251 28.57 168.311 28.66 168.371 28.72C168.491 28.93 168.581 29.17 168.701 29.38C168.731 29.44 168.761 29.5 168.791 29.59C168.881 29.83 168.971 30.1 169.061 30.34C169.091 30.4 169.091 30.46 169.121 30.49C169.181 30.79 169.241 31.09 169.301 31.39C169.301 31.42 169.331 31.45 169.331 31.51C169.391 31.81 169.421 32.14 169.451 32.5ZM162.641 37.57C162.641 37.42 162.671 37.27 162.671 37.12L162.641 34.03C162.641 33.85 162.611 33.67 162.581 33.49C162.581 33.46 162.581 33.46 162.581 33.43C162.551 33.28 162.521 33.1 162.461 32.95C162.461 32.95 162.461 32.92 162.461 32.89C162.401 32.74 162.371 32.62 162.311 32.47C162.281 32.44 162.281 32.41 162.251 32.38C162.191 32.26 162.131 32.14 162.071 32.02C162.041 31.99 162.011 31.93 161.981 31.9C161.921 31.81 161.861 31.72 161.801 31.63C161.741 31.57 161.711 31.51 161.651 31.45C161.591 31.39 161.531 31.3 161.471 31.24C161.381 31.18 161.291 31.12 161.201 31.03C161.171 31 161.111 30.97 161.081 30.91C160.031 30.16 158.501 29.8 156.521 29.83H153.251C153.041 29.83 152.831 29.83 152.621 29.83C152.561 29.86 152.531 29.86 152.471 29.86C152.291 29.86 152.081 29.89 151.901 29.89C151.871 29.89 151.841 29.92 151.811 29.92C151.211 29.98 150.701 30.1 150.221 30.25C150.191 30.28 150.161 30.28 150.131 30.28C149.981 30.34 149.831 30.4 149.711 30.46C149.681 30.49 149.651 30.49 149.621 30.52C149.051 30.79 148.571 31.15 148.211 31.57C148.181 31.6 148.181 31.63 148.151 31.66C148.061 31.75 148.001 31.87 147.941 31.99C147.911 31.99 147.911 32.02 147.881 32.05C147.671 32.41 147.521 32.83 147.431 33.25C147.431 33.28 147.431 33.31 147.401 33.34C147.371 33.49 147.371 33.64 147.341 33.79C147.341 33.82 147.341 33.85 147.341 33.91C147.311 34.06 147.311 34.21 147.311 34.39L147.341 37.45C147.341 37.45 147.341 37.45 147.341 37.48C147.341 37.66 147.371 37.81 147.401 37.99C147.401 38.02 147.401 38.02 147.401 38.05C147.431 38.2 147.461 38.38 147.491 38.53C147.521 38.56 147.521 38.56 147.521 38.59C147.581 38.74 147.611 38.89 147.671 39.01C147.701 39.04 147.701 39.07 147.731 39.1C147.791 39.22 147.821 39.34 147.911 39.46C147.941 39.49 147.971 39.55 147.971 39.58C148.061 39.67 148.121 39.79 148.181 39.88C148.241 39.91 148.271 39.97 148.331 40.03C148.391 40.09 148.451 40.18 148.511 40.24C148.601 40.3 148.691 40.39 148.781 40.45C148.811 40.48 148.871 40.54 148.901 40.57C149.951 41.32 151.481 41.68 153.461 41.65H156.731C156.941 41.65 157.151 41.65 157.361 41.65C157.421 41.65 157.451 41.65 157.511 41.62C157.691 41.62 157.901 41.59 158.081 41.59C158.111 41.59 158.141 41.59 158.171 41.56C158.741 41.5 159.281 41.38 159.761 41.23C159.791 41.2 159.821 41.2 159.851 41.2C160.001 41.14 160.151 41.08 160.271 41.02C160.301 41.02 160.331 40.99 160.361 40.96C160.931 40.69 161.411 40.33 161.771 39.91C161.801 39.88 161.801 39.85 161.831 39.82C161.921 39.73 161.981 39.61 162.041 39.49C162.071 39.49 162.071 39.46 162.101 39.43C162.311 39.07 162.461 38.68 162.551 38.23C162.551 38.2 162.551 38.17 162.581 38.14C162.581 37.99 162.611 37.84 162.641 37.69C162.641 37.66 162.641 37.63 162.641 37.57ZM199.604 39.01V39.4C199.604 39.43 199.604 39.46 199.604 39.52V41.32C199.574 41.56 199.574 41.8 199.514 42.01C199.514 42.04 199.514 42.07 199.514 42.1C199.484 42.31 199.424 42.52 199.364 42.73C199.364 42.76 199.364 42.79 199.334 42.82C199.274 43 199.214 43.21 199.154 43.36C199.124 43.42 199.094 43.45 199.064 43.51C199.004 43.66 198.914 43.81 198.854 43.96C198.794 44.02 198.764 44.08 198.734 44.14C198.644 44.26 198.554 44.41 198.464 44.5C198.404 44.59 198.344 44.65 198.284 44.74C198.194 44.83 198.104 44.92 198.014 45.01C197.924 45.1 197.804 45.19 197.684 45.28C197.624 45.34 197.564 45.4 197.504 45.43C196.124 46.45 194.084 46.93 191.444 46.9H179.924C177.254 46.93 175.214 46.45 173.834 45.43C173.774 45.4 173.714 45.34 173.654 45.28C173.534 45.19 173.414 45.1 173.324 45.01C173.234 44.92 173.144 44.83 173.054 44.74C172.994 44.65 172.934 44.59 172.874 44.5C172.784 44.41 172.694 44.26 172.604 44.14C172.574 44.08 172.544 44.02 172.514 43.96C172.424 43.81 172.334 43.66 172.274 43.51C172.244 43.45 172.214 43.42 172.184 43.36C172.124 43.21 172.064 43 172.004 42.82C172.004 42.79 171.974 42.76 171.974 42.73C171.914 42.52 171.854 42.31 171.824 42.1C171.824 42.07 171.824 42.04 171.824 42.01C171.764 41.8 171.764 41.56 171.734 41.32C171.734 41.29 171.734 41.29 171.734 41.29V39.34H177.704V39.97C177.704 40.06 177.734 40.18 177.734 40.27V40.3C177.764 40.39 177.764 40.48 177.794 40.57L177.824 40.6C177.824 40.69 177.854 40.75 177.884 40.84C177.914 40.84 177.914 40.87 177.914 40.87C177.944 40.96 177.974 41.02 178.034 41.08C178.034 41.11 178.064 41.11 178.064 41.14C178.094 41.2 178.124 41.26 178.184 41.29C178.214 41.32 178.244 41.35 178.244 41.38C178.304 41.44 178.334 41.47 178.364 41.5C178.394 41.56 178.454 41.59 178.514 41.62C178.514 41.65 178.544 41.68 178.574 41.68C179.144 42.1 179.984 42.31 181.094 42.31C181.094 42.31 181.934 42.28 181.934 42.31C181.934 42.31 189.404 42.31 189.404 42.28C189.404 42.28 190.244 42.31 190.244 42.28C191.174 42.31 192.224 42.19 192.944 41.53C193.334 41.17 193.604 40.66 193.574 40.15C193.574 40.09 193.574 40.03 193.574 39.97C193.484 39.4 193.094 38.89 192.614 38.56C191.954 38.14 191.144 38.05 190.364 38.05H189.404H180.404H179.624C179.324 38.05 179.054 38.05 178.784 38.02C178.724 38.02 178.664 38.02 178.604 38.02C178.334 37.99 178.064 37.99 177.824 37.96C177.794 37.96 177.764 37.93 177.704 37.93C176.924 37.84 176.204 37.69 175.574 37.45C175.544 37.45 175.514 37.45 175.454 37.42C175.274 37.36 175.094 37.27 174.914 37.21C174.854 37.18 174.824 37.15 174.764 37.15C174.014 36.76 173.384 36.28 172.904 35.71C172.874 35.68 172.844 35.65 172.814 35.59C172.724 35.47 172.634 35.32 172.544 35.17C172.514 35.14 172.514 35.11 172.484 35.08C172.214 34.6 172.004 34.06 171.884 33.46C171.854 33.43 171.854 33.4 171.854 33.34C171.824 33.16 171.794 32.98 171.764 32.77C171.764 32.71 171.764 32.68 171.764 32.62C171.734 32.56 171.734 32.53 171.734 32.47V32.14C171.734 32.08 171.734 32.05 171.734 31.99V30.16C171.764 29.92 171.794 29.71 171.824 29.47C171.824 29.44 171.824 29.41 171.824 29.41C171.854 29.17 171.914 28.96 171.974 28.78C171.974 28.72 172.004 28.69 172.004 28.66C172.064 28.48 172.124 28.3 172.214 28.12C172.214 28.06 172.244 28.03 172.274 27.97C172.334 27.82 172.424 27.67 172.514 27.52C172.544 27.46 172.574 27.4 172.604 27.34C172.694 27.22 172.784 27.1 172.874 26.98C172.934 26.89 172.994 26.83 173.084 26.77C173.144 26.68 173.234 26.56 173.324 26.5C173.414 26.38 173.534 26.29 173.654 26.2C173.714 26.14 173.774 26.11 173.834 26.05C175.214 25.06 177.254 24.55 179.924 24.58H191.444C194.084 24.55 196.124 25.06 197.504 26.05C197.564 26.11 197.624 26.14 197.684 26.2C197.804 26.29 197.924 26.38 198.014 26.5C198.104 26.56 198.194 26.68 198.284 26.77C198.344 26.83 198.404 26.89 198.464 26.98C198.554 27.1 198.644 27.22 198.734 27.34C198.764 27.4 198.794 27.46 198.854 27.52C198.944 27.67 199.004 27.82 199.094 27.97C199.094 28.03 199.124 28.06 199.154 28.12C199.214 28.3 199.274 28.48 199.334 28.66C199.364 28.69 199.364 28.72 199.364 28.78C199.424 28.96 199.484 29.17 199.514 29.41C199.514 29.41 199.514 29.44 199.514 29.47C199.574 29.71 199.574 29.95 199.604 30.19V32.17H193.634C193.634 32.17 193.634 31.54 193.634 31.51C193.634 31.42 193.634 31.33 193.604 31.24C193.604 31.21 193.604 31.21 193.604 31.18C193.574 31.09 193.574 31.03 193.544 30.94C193.544 30.91 193.544 30.91 193.514 30.88C193.514 30.82 193.484 30.73 193.454 30.67C193.424 30.64 193.424 30.61 193.424 30.61C193.394 30.55 193.364 30.49 193.334 30.4C193.304 30.4 193.304 30.37 193.274 30.34C193.244 30.28 193.214 30.25 193.154 30.19C193.154 30.16 193.124 30.13 193.094 30.1C193.064 30.07 193.004 30.01 192.974 29.98C192.944 29.95 192.884 29.89 192.854 29.86C192.824 29.86 192.794 29.83 192.764 29.8C192.194 29.38 191.354 29.17 190.244 29.2H189.404H181.934H181.094C180.014 29.17 178.634 29.32 178.034 30.37C177.734 30.88 177.704 31.51 177.944 32.05C178.334 32.98 179.264 33.28 180.194 33.4H180.224C180.344 33.4 180.434 33.43 180.554 33.43C180.584 33.43 180.614 33.43 180.644 33.43C180.734 33.43 180.854 33.43 180.974 33.43H181.934H189.404H191.714C192.014 33.43 192.284 33.46 192.554 33.46C192.614 33.46 192.674 33.46 192.734 33.49C193.004 33.49 193.274 33.52 193.514 33.55C193.544 33.55 193.574 33.55 193.634 33.55C194.414 33.64 195.134 33.82 195.764 34.03C195.794 34.03 195.824 34.06 195.884 34.06C196.064 34.12 196.244 34.21 196.424 34.3C196.484 34.3 196.514 34.33 196.574 34.36C197.324 34.72 197.954 35.2 198.434 35.77C198.464 35.83 198.494 35.86 198.524 35.89C198.614 36.04 198.704 36.16 198.794 36.31C198.824 36.34 198.824 36.37 198.854 36.4C199.124 36.88 199.334 37.42 199.454 38.02C199.484 38.05 199.484 38.11 199.484 38.14C199.514 38.32 199.544 38.53 199.574 38.71C199.574 38.77 199.574 38.83 199.574 38.89C199.604 38.92 199.604 38.98 199.604 39.01Z" fill="white"/>
</svg>
