<svg width="507" height="368" viewBox="0 0 507 368" fill="none" xmlns="http://www.w3.org/2000/svg">
<path d="M154.062 66.7999C182.033 43.6603 217.198 31 253.5 31V187L154.062 66.7999Z" fill="white"/>
<mask id="path-2-inside-1_58_435" fill="white">
<path d="M253.5 31C290.223 31 325.768 43.9551 353.879 67.5846C381.99 91.2141 400.863 124.003 407.177 160.179C413.491 196.355 406.84 233.599 388.395 265.353C369.951 297.108 340.895 321.338 306.343 333.777C271.791 346.217 233.959 346.068 199.506 333.358C165.053 320.647 136.188 296.19 117.993 264.292C99.7987 232.393 93.4406 195.098 100.038 158.973C106.636 122.848 125.766 90.2079 154.062 66.7999L253.5 187V31Z"/>
</mask>
<path d="M253.5 31C290.223 31 325.768 43.9551 353.879 67.5846C381.99 91.2141 400.863 124.003 407.177 160.179C413.491 196.355 406.84 233.599 388.395 265.353C369.951 297.108 340.895 321.338 306.343 333.777C271.791 346.217 233.959 346.068 199.506 333.358C165.053 320.647 136.188 296.19 117.993 264.292C99.7987 232.393 93.4406 195.098 100.038 158.973C106.636 122.848 125.766 90.2079 154.062 66.7999L253.5 187V31Z" fill="url(#paint0_radial_58_435)" fill-opacity="0.7" stroke="#5300D0" stroke-opacity="0.7" stroke-width="2" mask="url(#path-2-inside-1_58_435)"/>
<path d="M414.867 319.41L418.242 319.082C418.445 320.215 418.855 321.047 419.473 321.578C420.098 322.109 420.937 322.375 421.992 322.375C423.109 322.375 423.949 322.141 424.512 321.672C425.082 321.195 425.367 320.641 425.367 320.008C425.367 319.602 425.246 319.258 425.004 318.977C424.769 318.688 424.355 318.438 423.762 318.227C423.355 318.086 422.43 317.836 420.984 317.477C419.125 317.016 417.82 316.449 417.07 315.777C416.016 314.832 415.488 313.68 415.488 312.32C415.488 311.445 415.734 310.629 416.226 309.871C416.726 309.105 417.441 308.523 418.371 308.125C419.308 307.727 420.437 307.527 421.758 307.527C423.914 307.527 425.535 308 426.621 308.945C427.715 309.891 428.289 311.152 428.344 312.73L424.875 312.883C424.726 312 424.406 311.367 423.914 310.984C423.43 310.594 422.699 310.398 421.723 310.398C420.715 310.398 419.926 310.605 419.355 311.02C418.988 311.285 418.805 311.641 418.805 312.086C418.805 312.492 418.976 312.84 419.32 313.129C419.758 313.496 420.82 313.879 422.508 314.277C424.195 314.676 425.441 315.09 426.246 315.52C427.058 315.941 427.691 316.523 428.144 317.266C428.605 318 428.836 318.91 428.836 319.996C428.836 320.98 428.562 321.902 428.016 322.762C427.469 323.621 426.695 324.262 425.695 324.684C424.695 325.098 423.449 325.305 421.957 325.305C419.785 325.305 418.117 324.805 416.953 323.805C415.789 322.797 415.094 321.332 414.867 319.41ZM437.437 312.555V315.18H435.187V320.195C435.187 321.211 435.207 321.805 435.246 321.977C435.293 322.141 435.391 322.277 435.539 322.387C435.695 322.496 435.883 322.551 436.101 322.551C436.406 322.551 436.848 322.445 437.426 322.234L437.707 324.789C436.941 325.117 436.074 325.281 435.105 325.281C434.512 325.281 433.976 325.184 433.5 324.988C433.023 324.785 432.672 324.527 432.445 324.215C432.226 323.895 432.074 323.465 431.988 322.926C431.918 322.543 431.883 321.77 431.883 320.605V315.18H430.371V312.555H431.883V310.082L435.187 308.16V312.555H437.437ZM442.183 316.352L439.195 315.812C439.531 314.609 440.109 313.719 440.93 313.141C441.75 312.562 442.969 312.273 444.586 312.273C446.055 312.273 447.148 312.449 447.867 312.801C448.586 313.145 449.09 313.586 449.379 314.125C449.676 314.656 449.824 315.637 449.824 317.066L449.789 320.91C449.789 322.004 449.84 322.812 449.941 323.336C450.051 323.852 450.25 324.406 450.539 325H447.281C447.195 324.781 447.09 324.457 446.965 324.027C446.91 323.832 446.871 323.703 446.848 323.641C446.285 324.188 445.683 324.598 445.043 324.871C444.402 325.145 443.719 325.281 442.992 325.281C441.711 325.281 440.699 324.934 439.957 324.238C439.223 323.543 438.855 322.664 438.855 321.602C438.855 320.898 439.023 320.273 439.359 319.727C439.695 319.172 440.164 318.75 440.766 318.461C441.375 318.164 442.25 317.906 443.391 317.688C444.93 317.398 445.996 317.129 446.59 316.879V316.551C446.59 315.918 446.433 315.469 446.121 315.203C445.808 314.93 445.219 314.793 444.351 314.793C443.766 314.793 443.308 314.91 442.98 315.145C442.652 315.371 442.387 315.773 442.183 316.352ZM446.59 319.023C446.168 319.164 445.5 319.332 444.586 319.527C443.672 319.723 443.074 319.914 442.793 320.102C442.363 320.406 442.148 320.793 442.148 321.262C442.148 321.723 442.32 322.121 442.664 322.457C443.008 322.793 443.445 322.961 443.976 322.961C444.57 322.961 445.137 322.766 445.676 322.375C446.074 322.078 446.336 321.715 446.461 321.285C446.547 321.004 446.59 320.469 446.59 319.68V319.023ZM456.234 325H452.941V312.555H456V314.324C456.523 313.488 456.992 312.938 457.406 312.672C457.828 312.406 458.305 312.273 458.836 312.273C459.586 312.273 460.308 312.48 461.004 312.895L459.984 315.766C459.43 315.406 458.914 315.227 458.437 315.227C457.976 315.227 457.586 315.355 457.266 315.613C456.945 315.863 456.691 316.32 456.504 316.984C456.324 317.648 456.234 319.039 456.234 321.156V325ZM468.141 312.555V315.18H465.891V320.195C465.891 321.211 465.91 321.805 465.949 321.977C465.996 322.141 466.094 322.277 466.242 322.387C466.398 322.496 466.586 322.551 466.805 322.551C467.109 322.551 467.551 322.445 468.129 322.234L468.41 324.789C467.644 325.117 466.777 325.281 465.808 325.281C465.215 325.281 464.68 325.184 464.203 324.988C463.726 324.785 463.375 324.527 463.148 324.215C462.93 323.895 462.777 323.465 462.691 322.926C462.621 322.543 462.586 321.77 462.586 320.605V315.18H461.074V312.555H462.586V310.082L465.891 308.16V312.555H468.141ZM478.617 325V323.137C478.164 323.801 477.566 324.324 476.824 324.707C476.09 325.09 475.312 325.281 474.492 325.281C473.656 325.281 472.906 325.098 472.242 324.73C471.578 324.363 471.098 323.848 470.801 323.184C470.504 322.52 470.355 321.602 470.355 320.43V312.555H473.648V318.273C473.648 320.023 473.707 321.098 473.824 321.496C473.949 321.887 474.172 322.199 474.492 322.434C474.812 322.66 475.219 322.773 475.711 322.773C476.273 322.773 476.777 322.621 477.223 322.316C477.668 322.004 477.973 321.621 478.137 321.168C478.301 320.707 478.383 319.586 478.383 317.805V312.555H481.676V325H478.617ZM485.004 312.555H488.074V314.383C488.473 313.758 489.012 313.25 489.691 312.859C490.371 312.469 491.125 312.273 491.953 312.273C493.398 312.273 494.625 312.84 495.633 313.973C496.641 315.105 497.144 316.684 497.144 318.707C497.144 320.785 496.637 322.402 495.621 323.559C494.605 324.707 493.375 325.281 491.93 325.281C491.242 325.281 490.617 325.145 490.055 324.871C489.5 324.598 488.914 324.129 488.297 323.465V329.734H485.004V312.555ZM488.262 318.566C488.262 319.965 488.539 321 489.094 321.672C489.648 322.336 490.324 322.668 491.121 322.668C491.887 322.668 492.523 322.363 493.031 321.754C493.539 321.137 493.793 320.129 493.793 318.73C493.793 317.426 493.531 316.457 493.008 315.824C492.484 315.191 491.836 314.875 491.062 314.875C490.258 314.875 489.59 315.188 489.058 315.812C488.527 316.43 488.262 317.348 488.262 318.566Z" fill="white" fill-opacity="0.8"/>
<path d="M165.738 213.684L169.101 214.75C168.586 216.625 167.726 218.02 166.523 218.934C165.328 219.84 163.808 220.293 161.965 220.293C159.683 220.293 157.808 219.516 156.34 217.961C154.871 216.398 154.137 214.266 154.137 211.562C154.137 208.703 154.875 206.484 156.351 204.906C157.828 203.32 159.769 202.527 162.176 202.527C164.277 202.527 165.984 203.148 167.297 204.391C168.078 205.125 168.664 206.18 169.055 207.555L165.621 208.375C165.418 207.484 164.992 206.781 164.344 206.266C163.703 205.75 162.922 205.492 162 205.492C160.726 205.492 159.691 205.949 158.894 206.863C158.105 207.777 157.711 209.258 157.711 211.305C157.711 213.477 158.101 215.023 158.883 215.945C159.664 216.867 160.68 217.328 161.93 217.328C162.851 217.328 163.644 217.035 164.308 216.449C164.973 215.863 165.449 214.941 165.738 213.684ZM172.066 220V202.82H175.359V220H172.066ZM177.984 213.602C177.984 212.508 178.254 211.449 178.793 210.426C179.332 209.402 180.094 208.621 181.078 208.082C182.07 207.543 183.176 207.273 184.394 207.273C186.277 207.273 187.82 207.887 189.023 209.113C190.226 210.332 190.828 211.875 190.828 213.742C190.828 215.625 190.219 217.188 189 218.43C187.789 219.664 186.262 220.281 184.418 220.281C183.277 220.281 182.187 220.023 181.148 219.508C180.117 218.992 179.332 218.238 178.793 217.246C178.254 216.246 177.984 215.031 177.984 213.602ZM181.359 213.777C181.359 215.012 181.652 215.957 182.238 216.613C182.824 217.27 183.547 217.598 184.406 217.598C185.266 217.598 185.984 217.27 186.562 216.613C187.148 215.957 187.441 215.004 187.441 213.754C187.441 212.535 187.148 211.598 186.562 210.941C185.984 210.285 185.266 209.957 184.406 209.957C183.547 209.957 182.824 210.285 182.238 210.941C181.652 211.598 181.359 212.543 181.359 213.777ZM201.609 220V218.137C201.156 218.801 200.558 219.324 199.816 219.707C199.082 220.09 198.305 220.281 197.484 220.281C196.648 220.281 195.898 220.098 195.234 219.73C194.57 219.363 194.09 218.848 193.793 218.184C193.496 217.52 193.348 216.602 193.348 215.43V207.555H196.641V213.273C196.641 215.023 196.699 216.098 196.816 216.496C196.941 216.887 197.164 217.199 197.484 217.434C197.805 217.66 198.211 217.773 198.703 217.773C199.266 217.773 199.769 217.621 200.215 217.316C200.66 217.004 200.965 216.621 201.129 216.168C201.293 215.707 201.375 214.586 201.375 212.805V207.555H204.668V220H201.609ZM219.504 220H216.445V218.172C215.937 218.883 215.336 219.414 214.641 219.766C213.953 220.109 213.258 220.281 212.555 220.281C211.125 220.281 209.898 219.707 208.875 218.559C207.859 217.402 207.351 215.793 207.351 213.73C207.351 211.621 207.848 210.02 208.84 208.926C209.832 207.824 211.086 207.273 212.601 207.273C213.992 207.273 215.195 207.852 216.211 209.008V202.82H219.504V220ZM210.715 213.508C210.715 214.836 210.898 215.797 211.266 216.391C211.797 217.25 212.539 217.68 213.492 217.68C214.25 217.68 214.894 217.359 215.426 216.719C215.957 216.07 216.223 215.105 216.223 213.824C216.223 212.395 215.965 211.367 215.449 210.742C214.933 210.109 214.273 209.793 213.469 209.793C212.687 209.793 212.031 210.105 211.5 210.73C210.976 211.348 210.715 212.273 210.715 213.508ZM153.867 242.41L157.242 242.082C157.445 243.215 157.855 244.047 158.473 244.578C159.098 245.109 159.937 245.375 160.992 245.375C162.109 245.375 162.949 245.141 163.512 244.672C164.082 244.195 164.367 243.641 164.367 243.008C164.367 242.602 164.246 242.258 164.004 241.977C163.769 241.688 163.355 241.438 162.762 241.227C162.355 241.086 161.43 240.836 159.984 240.477C158.125 240.016 156.82 239.449 156.07 238.777C155.016 237.832 154.488 236.68 154.488 235.32C154.488 234.445 154.734 233.629 155.226 232.871C155.726 232.105 156.441 231.523 157.371 231.125C158.308 230.727 159.437 230.527 160.758 230.527C162.914 230.527 164.535 231 165.621 231.945C166.715 232.891 167.289 234.152 167.344 235.73L163.875 235.883C163.726 235 163.406 234.367 162.914 233.984C162.43 233.594 161.699 233.398 160.723 233.398C159.715 233.398 158.926 233.605 158.355 234.02C157.988 234.285 157.805 234.641 157.805 235.086C157.805 235.492 157.976 235.84 158.32 236.129C158.758 236.496 159.82 236.879 161.508 237.277C163.195 237.676 164.441 238.09 165.246 238.52C166.058 238.941 166.691 239.523 167.144 240.266C167.605 241 167.836 241.91 167.836 242.996C167.836 243.98 167.562 244.902 167.016 245.762C166.469 246.621 165.695 247.262 164.695 247.684C163.695 248.098 162.449 248.305 160.957 248.305C158.785 248.305 157.117 247.805 155.953 246.805C154.789 245.797 154.094 244.332 153.867 242.41ZM177.937 244.039L181.219 244.59C180.797 245.793 180.129 246.711 179.215 247.344C178.308 247.969 177.172 248.281 175.805 248.281C173.641 248.281 172.039 247.574 171 246.16C170.18 245.027 169.769 243.598 169.769 241.871C169.769 239.809 170.308 238.195 171.387 237.031C172.465 235.859 173.828 235.273 175.476 235.273C177.328 235.273 178.789 235.887 179.859 237.113C180.93 238.332 181.441 240.203 181.394 242.727H173.144C173.168 243.703 173.433 244.465 173.941 245.012C174.449 245.551 175.082 245.82 175.84 245.82C176.355 245.82 176.789 245.68 177.141 245.398C177.492 245.117 177.758 244.664 177.937 244.039ZM178.125 240.711C178.101 239.758 177.855 239.035 177.387 238.543C176.918 238.043 176.348 237.793 175.676 237.793C174.957 237.793 174.363 238.055 173.894 238.578C173.426 239.102 173.195 239.812 173.203 240.711H178.125ZM194.941 239.234L191.695 239.82C191.586 239.172 191.336 238.684 190.945 238.355C190.562 238.027 190.062 237.863 189.445 237.863C188.625 237.863 187.969 238.148 187.476 238.719C186.992 239.281 186.75 240.227 186.75 241.555C186.75 243.031 186.996 244.074 187.488 244.684C187.988 245.293 188.656 245.598 189.492 245.598C190.117 245.598 190.629 245.422 191.027 245.07C191.426 244.711 191.707 244.098 191.871 243.23L195.105 243.781C194.769 245.266 194.125 246.387 193.172 247.145C192.219 247.902 190.941 248.281 189.34 248.281C187.519 248.281 186.066 247.707 184.98 246.559C183.902 245.41 183.363 243.82 183.363 241.789C183.363 239.734 183.906 238.137 184.992 236.996C186.078 235.848 187.547 235.273 189.398 235.273C190.914 235.273 192.117 235.602 193.008 236.258C193.906 236.906 194.551 237.898 194.941 239.234ZM205.641 248V246.137C205.187 246.801 204.59 247.324 203.848 247.707C203.113 248.09 202.336 248.281 201.516 248.281C200.68 248.281 199.93 248.098 199.266 247.73C198.601 247.363 198.121 246.848 197.824 246.184C197.527 245.52 197.379 244.602 197.379 243.43V235.555H200.672V241.273C200.672 243.023 200.73 244.098 200.848 244.496C200.973 244.887 201.195 245.199 201.516 245.434C201.836 245.66 202.242 245.773 202.734 245.773C203.297 245.773 203.801 245.621 204.246 245.316C204.691 245.004 204.996 244.621 205.16 244.168C205.324 243.707 205.406 242.586 205.406 240.805V235.555H208.699V248H205.641ZM215.273 248H211.98V235.555H215.039V237.324C215.562 236.488 216.031 235.938 216.445 235.672C216.867 235.406 217.344 235.273 217.875 235.273C218.625 235.273 219.348 235.48 220.043 235.895L219.023 238.766C218.469 238.406 217.953 238.227 217.476 238.227C217.016 238.227 216.625 238.355 216.305 238.613C215.984 238.863 215.73 239.32 215.543 239.984C215.363 240.648 215.273 242.039 215.273 244.156V248ZM221.473 233.867V230.82H224.766V233.867H221.473ZM221.473 248V235.555H224.766V248H221.473ZM233.859 235.555V238.18H231.609V243.195C231.609 244.211 231.629 244.805 231.668 244.977C231.715 245.141 231.812 245.277 231.961 245.387C232.117 245.496 232.305 245.551 232.523 245.551C232.828 245.551 233.269 245.445 233.848 245.234L234.129 247.789C233.363 248.117 232.496 248.281 231.527 248.281C230.933 248.281 230.398 248.184 229.922 247.988C229.445 247.785 229.094 247.527 228.867 247.215C228.648 246.895 228.496 246.465 228.41 245.926C228.34 245.543 228.305 244.77 228.305 243.605V238.18H226.793V235.555H228.305V233.082L231.609 231.16V235.555H233.859ZM234.586 235.555H238.09L241.066 244.391L243.973 235.555H247.383L242.988 247.531L242.203 249.699C241.914 250.426 241.637 250.98 241.371 251.363C241.113 251.746 240.812 252.055 240.469 252.289C240.133 252.531 239.715 252.719 239.215 252.852C238.723 252.984 238.164 253.051 237.539 253.051C236.906 253.051 236.285 252.984 235.676 252.852L235.383 250.273C235.898 250.375 236.363 250.426 236.777 250.426C237.543 250.426 238.109 250.199 238.476 249.746C238.844 249.301 239.125 248.73 239.32 248.035L234.586 235.555ZM154.758 258.82H161.625C162.984 258.82 163.996 258.879 164.66 258.996C165.332 259.105 165.93 259.34 166.453 259.699C166.984 260.059 167.426 260.539 167.777 261.141C168.129 261.734 168.305 262.402 168.305 263.145C168.305 263.949 168.086 264.688 167.648 265.359C167.219 266.031 166.633 266.535 165.891 266.871C166.937 267.176 167.742 267.695 168.305 268.43C168.867 269.164 169.148 270.027 169.148 271.02C169.148 271.801 168.965 272.562 168.598 273.305C168.238 274.039 167.742 274.629 167.109 275.074C166.484 275.512 165.711 275.781 164.789 275.883C164.211 275.945 162.816 275.984 160.605 276H154.758V258.82ZM158.226 261.68V265.652H160.5C161.851 265.652 162.691 265.633 163.019 265.594C163.613 265.523 164.078 265.32 164.414 264.984C164.758 264.641 164.93 264.191 164.93 263.637C164.93 263.105 164.781 262.676 164.484 262.348C164.195 262.012 163.762 261.809 163.183 261.738C162.84 261.699 161.851 261.68 160.219 261.68H158.226ZM158.226 268.512V273.105H161.437C162.687 273.105 163.48 273.07 163.816 273C164.332 272.906 164.75 272.68 165.07 272.32C165.398 271.953 165.562 271.465 165.562 270.855C165.562 270.34 165.437 269.902 165.187 269.543C164.937 269.184 164.574 268.922 164.098 268.758C163.629 268.594 162.605 268.512 161.027 268.512H158.226ZM175.219 276H171.926V263.555H174.984V265.324C175.508 264.488 175.976 263.938 176.391 263.672C176.812 263.406 177.289 263.273 177.82 263.273C178.57 263.273 179.293 263.48 179.988 263.895L178.969 266.766C178.414 266.406 177.898 266.227 177.422 266.227C176.961 266.227 176.57 266.355 176.25 266.613C175.93 266.863 175.676 267.32 175.488 267.984C175.308 268.648 175.219 270.039 175.219 272.156V276ZM188.625 272.039L191.906 272.59C191.484 273.793 190.816 274.711 189.902 275.344C188.996 275.969 187.859 276.281 186.492 276.281C184.328 276.281 182.726 275.574 181.687 274.16C180.867 273.027 180.457 271.598 180.457 269.871C180.457 267.809 180.996 266.195 182.074 265.031C183.152 263.859 184.516 263.273 186.164 263.273C188.016 263.273 189.476 263.887 190.547 265.113C191.617 266.332 192.129 268.203 192.082 270.727H183.832C183.855 271.703 184.121 272.465 184.629 273.012C185.137 273.551 185.769 273.82 186.527 273.82C187.043 273.82 187.476 273.68 187.828 273.398C188.18 273.117 188.445 272.664 188.625 272.039ZM188.812 268.711C188.789 267.758 188.543 267.035 188.074 266.543C187.605 266.043 187.035 265.793 186.363 265.793C185.644 265.793 185.051 266.055 184.582 266.578C184.113 267.102 183.883 267.812 183.891 268.711H188.812ZM197.238 267.352L194.25 266.812C194.586 265.609 195.164 264.719 195.984 264.141C196.805 263.562 198.023 263.273 199.641 263.273C201.109 263.273 202.203 263.449 202.922 263.801C203.641 264.145 204.144 264.586 204.433 265.125C204.73 265.656 204.879 266.637 204.879 268.066L204.844 271.91C204.844 273.004 204.894 273.812 204.996 274.336C205.105 274.852 205.305 275.406 205.594 276H202.336C202.25 275.781 202.144 275.457 202.019 275.027C201.965 274.832 201.926 274.703 201.902 274.641C201.34 275.188 200.738 275.598 200.098 275.871C199.457 276.145 198.773 276.281 198.047 276.281C196.766 276.281 195.754 275.934 195.012 275.238C194.277 274.543 193.91 273.664 193.91 272.602C193.91 271.898 194.078 271.273 194.414 270.727C194.75 270.172 195.219 269.75 195.82 269.461C196.43 269.164 197.305 268.906 198.445 268.688C199.984 268.398 201.051 268.129 201.644 267.879V267.551C201.644 266.918 201.488 266.469 201.176 266.203C200.863 265.93 200.273 265.793 199.406 265.793C198.82 265.793 198.363 265.91 198.035 266.145C197.707 266.371 197.441 266.773 197.238 267.352ZM201.644 270.023C201.223 270.164 200.555 270.332 199.641 270.527C198.726 270.723 198.129 270.914 197.848 271.102C197.418 271.406 197.203 271.793 197.203 272.262C197.203 272.723 197.375 273.121 197.719 273.457C198.062 273.793 198.5 273.961 199.031 273.961C199.625 273.961 200.191 273.766 200.73 273.375C201.129 273.078 201.391 272.715 201.516 272.285C201.601 272.004 201.644 271.469 201.644 270.68V270.023ZM218.988 267.234L215.742 267.82C215.633 267.172 215.383 266.684 214.992 266.355C214.609 266.027 214.109 265.863 213.492 265.863C212.672 265.863 212.016 266.148 211.523 266.719C211.039 267.281 210.797 268.227 210.797 269.555C210.797 271.031 211.043 272.074 211.535 272.684C212.035 273.293 212.703 273.598 213.539 273.598C214.164 273.598 214.676 273.422 215.074 273.07C215.473 272.711 215.754 272.098 215.918 271.23L219.152 271.781C218.816 273.266 218.172 274.387 217.219 275.145C216.266 275.902 214.988 276.281 213.387 276.281C211.566 276.281 210.113 275.707 209.027 274.559C207.949 273.41 207.41 271.82 207.41 269.789C207.41 267.734 207.953 266.137 209.039 264.996C210.125 263.848 211.594 263.273 213.445 263.273C214.961 263.273 216.164 263.602 217.055 264.258C217.953 264.906 218.598 265.898 218.988 267.234ZM224.777 258.82V265.137C225.84 263.895 227.109 263.273 228.586 263.273C229.344 263.273 230.027 263.414 230.637 263.695C231.246 263.977 231.703 264.336 232.008 264.773C232.32 265.211 232.531 265.695 232.641 266.227C232.758 266.758 232.816 267.582 232.816 268.699V276H229.523V269.426C229.523 268.121 229.461 267.293 229.336 266.941C229.211 266.59 228.988 266.312 228.668 266.109C228.355 265.898 227.961 265.793 227.484 265.793C226.937 265.793 226.449 265.926 226.019 266.191C225.59 266.457 225.273 266.859 225.07 267.398C224.875 267.93 224.777 268.719 224.777 269.766V276H221.484V258.82H224.777ZM243.375 272.039L246.656 272.59C246.234 273.793 245.566 274.711 244.652 275.344C243.746 275.969 242.609 276.281 241.242 276.281C239.078 276.281 237.476 275.574 236.437 274.16C235.617 273.027 235.207 271.598 235.207 269.871C235.207 267.809 235.746 266.195 236.824 265.031C237.902 263.859 239.266 263.273 240.914 263.273C242.766 263.273 244.226 263.887 245.297 265.113C246.367 266.332 246.879 268.203 246.832 270.727H238.582C238.605 271.703 238.871 272.465 239.379 273.012C239.887 273.551 240.519 273.82 241.277 273.82C241.793 273.82 242.226 273.68 242.578 273.398C242.93 273.117 243.195 272.664 243.375 272.039ZM243.562 268.711C243.539 267.758 243.293 267.035 242.824 266.543C242.355 266.043 241.785 265.793 241.113 265.793C240.394 265.793 239.801 266.055 239.332 266.578C238.863 267.102 238.633 267.812 238.641 268.711H243.562ZM248.367 272.449L251.672 271.945C251.812 272.586 252.098 273.074 252.527 273.41C252.957 273.738 253.558 273.902 254.332 273.902C255.183 273.902 255.824 273.746 256.254 273.434C256.543 273.215 256.687 272.922 256.687 272.555C256.687 272.305 256.609 272.098 256.453 271.934C256.289 271.777 255.922 271.633 255.351 271.5C252.695 270.914 251.012 270.379 250.301 269.895C249.316 269.223 248.824 268.289 248.824 267.094C248.824 266.016 249.25 265.109 250.101 264.375C250.953 263.641 252.273 263.273 254.062 263.273C255.766 263.273 257.031 263.551 257.859 264.105C258.687 264.66 259.258 265.48 259.57 266.566L256.465 267.141C256.332 266.656 256.078 266.285 255.703 266.027C255.336 265.77 254.808 265.641 254.121 265.641C253.254 265.641 252.633 265.762 252.258 266.004C252.008 266.176 251.883 266.398 251.883 266.672C251.883 266.906 251.992 267.105 252.211 267.27C252.508 267.488 253.531 267.797 255.281 268.195C257.039 268.594 258.266 269.082 258.961 269.66C259.648 270.246 259.992 271.062 259.992 272.109C259.992 273.25 259.516 274.23 258.562 275.051C257.609 275.871 256.199 276.281 254.332 276.281C252.637 276.281 251.293 275.938 250.301 275.25C249.316 274.562 248.672 273.629 248.367 272.449Z" fill="white"/>
<path d="M17.7225 38H16.076V31.7949C15.4745 32.3574 14.7655 32.7734 13.9491 33.043V31.5488C14.3788 31.4082 14.8456 31.1426 15.3495 30.752C15.8534 30.3574 16.1991 29.8984 16.3866 29.375H17.7225V38ZM23.7343 38H22.0878V31.7949C21.4862 32.3574 20.7772 32.7734 19.9608 33.043V31.5488C20.3905 31.4082 20.8573 31.1426 21.3612 30.752C21.8651 30.3574 22.2108 29.8984 22.3983 29.375H23.7343V38Z" fill="white"/>
<path d="M35.4706 38H34.4159V31.2793C34.162 31.5215 33.828 31.7637 33.4139 32.0059C33.0038 32.248 32.6346 32.4297 32.3065 32.5508V31.5312C32.8964 31.2539 33.412 30.918 33.8534 30.5234C34.2948 30.1289 34.6073 29.7461 34.7909 29.375H35.4706V38ZM41.2596 38H40.205V31.2793C39.951 31.5215 39.6171 31.7637 39.203 32.0059C38.7928 32.248 38.4237 32.4297 38.0956 32.5508V31.5312C38.6854 31.2539 39.201 30.918 39.6425 30.5234C40.0839 30.1289 40.3964 29.7461 40.58 29.375H41.2596V38ZM44.5585 38V36.7988H45.7596V38H44.5585ZM47.3065 33.7637C47.3065 32.748 47.41 31.9316 47.6171 31.3145C47.828 30.6934 48.1385 30.2148 48.5487 29.8789C48.9628 29.543 49.4823 29.375 50.1073 29.375C50.5682 29.375 50.9725 29.4688 51.3202 29.6562C51.6678 29.8398 51.955 30.1074 52.1815 30.459C52.4081 30.8066 52.5858 31.2324 52.7147 31.7363C52.8436 32.2363 52.9081 32.9121 52.9081 33.7637C52.9081 34.7715 52.8046 35.5859 52.5975 36.207C52.3905 36.8242 52.08 37.3027 51.6659 37.6426C51.2557 37.9785 50.7362 38.1465 50.1073 38.1465C49.2792 38.1465 48.6288 37.8496 48.1561 37.2559C47.5897 36.541 47.3065 35.377 47.3065 33.7637ZM48.3905 33.7637C48.3905 35.1738 48.5546 36.1133 48.8827 36.582C49.2147 37.0469 49.6229 37.2793 50.1073 37.2793C50.5917 37.2793 50.9979 37.0449 51.326 36.5762C51.6581 36.1074 51.8241 35.1699 51.8241 33.7637C51.8241 32.3496 51.6581 31.4102 51.326 30.9453C50.9979 30.4805 50.5878 30.248 50.0956 30.248C49.6112 30.248 49.2245 30.4531 48.9354 30.8633C48.5721 31.3867 48.3905 32.3535 48.3905 33.7637ZM53.9862 33.7637C53.9862 32.748 54.0897 31.9316 54.2968 31.3145C54.5077 30.6934 54.8182 30.2148 55.2284 29.8789C55.6425 29.543 56.162 29.375 56.787 29.375C57.2479 29.375 57.6522 29.4688 57.9999 29.6562C58.3475 29.8398 58.6346 30.1074 58.8612 30.459C59.0878 30.8066 59.2655 31.2324 59.3944 31.7363C59.5233 32.2363 59.5878 32.9121 59.5878 33.7637C59.5878 34.7715 59.4843 35.5859 59.2772 36.207C59.0702 36.8242 58.7596 37.3027 58.3456 37.6426C57.9354 37.9785 57.4159 38.1465 56.787 38.1465C55.9589 38.1465 55.3085 37.8496 54.8358 37.2559C54.2694 36.541 53.9862 35.377 53.9862 33.7637ZM55.0702 33.7637C55.0702 35.1738 55.2343 36.1133 55.5624 36.582C55.8944 37.0469 56.3026 37.2793 56.787 37.2793C57.2714 37.2793 57.6776 37.0449 58.0057 36.5762C58.3378 36.1074 58.5038 35.1699 58.5038 33.7637C58.5038 32.3496 58.3378 31.4102 58.0057 30.9453C57.6776 30.4805 57.2675 30.248 56.7753 30.248C56.2909 30.248 55.9042 30.4531 55.6151 30.8633C55.2518 31.3867 55.0702 32.3535 55.0702 33.7637ZM60.8651 31.4727C60.8651 30.8594 61.0194 30.3379 61.328 29.9082C61.6366 29.4785 62.0839 29.2637 62.6698 29.2637C63.2089 29.2637 63.6542 29.457 64.0057 29.8438C64.3612 30.2266 64.5389 30.791 64.5389 31.5371C64.5389 32.2637 64.3593 32.8242 63.9999 33.2188C63.6444 33.6094 63.205 33.8047 62.6815 33.8047C62.162 33.8047 61.7284 33.6113 61.3807 33.2246C61.037 32.8379 60.8651 32.2539 60.8651 31.4727ZM62.6991 29.9902C62.4374 29.9902 62.2186 30.1035 62.0428 30.3301C61.871 30.5566 61.785 30.9727 61.785 31.5781C61.785 32.1289 61.8729 32.5176 62.0487 32.7441C62.2245 32.9668 62.4413 33.0781 62.6991 33.0781C62.9647 33.0781 63.1835 32.9648 63.3553 32.7383C63.5311 32.5117 63.619 32.0977 63.619 31.4961C63.619 30.9414 63.5311 30.5527 63.3553 30.3301C63.1796 30.1035 62.9608 29.9902 62.6991 29.9902ZM62.705 38.3164L67.4042 29.2637H68.2596L63.578 38.3164H62.705ZM66.4198 35.9844C66.4198 35.3672 66.5741 34.8457 66.8827 34.4199C67.1913 33.9902 67.6405 33.7754 68.2303 33.7754C68.7694 33.7754 69.2147 33.9688 69.5663 34.3555C69.9218 34.7383 70.0995 35.3027 70.0995 36.0488C70.0995 36.7754 69.9198 37.3359 69.5604 37.7305C69.205 38.1211 68.7635 38.3164 68.2362 38.3164C67.7167 38.3164 67.2831 38.123 66.9354 37.7363C66.5917 37.3457 66.4198 36.7617 66.4198 35.9844ZM68.2596 34.502C67.994 34.502 67.7733 34.6152 67.5975 34.8418C67.4257 35.0684 67.3397 35.4844 67.3397 36.0898C67.3397 36.6367 67.4276 37.0234 67.6034 37.25C67.7792 37.4766 67.996 37.5898 68.2538 37.5898C68.5233 37.5898 68.744 37.4766 68.9159 37.25C69.0917 37.0234 69.1796 36.6094 69.1796 36.0078C69.1796 35.4531 69.0917 35.0645 68.9159 34.8418C68.7401 34.6152 68.5214 34.502 68.2596 34.502Z" fill="white"/>
<path d="M202.714 38.8364L197.372 24H12.9999" stroke="white"/>
<path d="M431.922 345.365C431.496 345.186 431.185 344.939 430.99 344.627C430.799 344.311 430.703 343.965 430.703 343.59C430.703 342.949 430.926 342.42 431.371 342.002C431.82 341.584 432.457 341.375 433.281 341.375C434.098 341.375 434.73 341.584 435.18 342.002C435.633 342.42 435.859 342.949 435.859 343.59C435.859 343.988 435.756 344.344 435.549 344.656C435.342 344.965 435.051 345.201 434.676 345.365C435.152 345.557 435.514 345.836 435.76 346.203C436.01 346.57 436.135 346.994 436.135 347.475C436.135 348.268 435.881 348.912 435.373 349.408C434.869 349.904 434.197 350.152 433.357 350.152C432.576 350.152 431.926 349.947 431.406 349.537C430.793 349.053 430.486 348.389 430.486 347.545C430.486 347.08 430.601 346.654 430.832 346.268C431.062 345.877 431.426 345.576 431.922 345.365ZM432.262 343.707C432.262 344.035 432.353 344.291 432.537 344.475C432.724 344.658 432.973 344.75 433.281 344.75C433.594 344.75 433.844 344.658 434.031 344.475C434.219 344.287 434.312 344.029 434.312 343.701C434.312 343.393 434.219 343.146 434.031 342.963C433.848 342.775 433.603 342.682 433.299 342.682C432.982 342.682 432.73 342.775 432.543 342.963C432.355 343.15 432.262 343.398 432.262 343.707ZM432.109 347.387C432.109 347.84 432.224 348.193 432.455 348.447C432.689 348.701 432.98 348.828 433.328 348.828C433.668 348.828 433.949 348.707 434.172 348.465C434.394 348.219 434.506 347.865 434.506 347.404C434.506 347.002 434.392 346.68 434.166 346.438C433.939 346.191 433.652 346.068 433.305 346.068C432.902 346.068 432.601 346.207 432.402 346.484C432.207 346.762 432.109 347.062 432.109 347.387ZM437.224 348.014L438.818 347.838C438.857 348.162 438.959 348.402 439.123 348.559C439.287 348.715 439.504 348.793 439.773 348.793C440.113 348.793 440.402 348.637 440.641 348.324C440.879 348.012 441.031 347.363 441.098 346.379C440.683 346.859 440.166 347.1 439.545 347.1C438.869 347.1 438.285 346.84 437.793 346.32C437.305 345.797 437.06 345.117 437.06 344.281C437.06 343.41 437.318 342.709 437.834 342.178C438.353 341.643 439.014 341.375 439.814 341.375C440.685 341.375 441.4 341.713 441.959 342.389C442.517 343.061 442.797 344.168 442.797 345.711C442.797 347.281 442.506 348.414 441.924 349.109C441.342 349.805 440.584 350.152 439.65 350.152C438.978 350.152 438.435 349.975 438.021 349.619C437.607 349.26 437.342 348.725 437.224 348.014ZM440.951 344.416C440.951 343.885 440.828 343.473 440.582 343.18C440.34 342.887 440.058 342.74 439.738 342.74C439.433 342.74 439.18 342.861 438.976 343.104C438.777 343.342 438.678 343.734 438.678 344.281C438.678 344.836 438.787 345.244 439.006 345.506C439.224 345.764 439.498 345.893 439.826 345.893C440.142 345.893 440.408 345.768 440.623 345.518C440.842 345.268 440.951 344.9 440.951 344.416Z" fill="#5300D0"/>
<path d="M454.121 345.342C453.683 345.182 453.359 344.953 453.148 344.656C452.937 344.359 452.832 344.004 452.832 343.59C452.832 342.965 453.057 342.439 453.506 342.014C453.955 341.588 454.553 341.375 455.299 341.375C456.049 341.375 456.652 341.594 457.109 342.031C457.566 342.465 457.795 342.994 457.795 343.619C457.795 344.018 457.689 344.365 457.478 344.662C457.271 344.955 456.955 345.182 456.529 345.342C457.057 345.514 457.457 345.791 457.73 346.174C458.008 346.557 458.146 347.014 458.146 347.545C458.146 348.279 457.887 348.896 457.367 349.396C456.848 349.896 456.164 350.146 455.316 350.146C454.469 350.146 453.785 349.896 453.266 349.396C452.746 348.893 452.486 348.266 452.486 347.516C452.486 346.957 452.627 346.49 452.908 346.115C453.193 345.736 453.598 345.479 454.121 345.342ZM453.91 343.555C453.91 343.961 454.041 344.293 454.303 344.551C454.564 344.809 454.904 344.938 455.322 344.938C455.728 344.938 456.06 344.811 456.318 344.557C456.58 344.299 456.711 343.984 456.711 343.613C456.711 343.227 456.576 342.902 456.307 342.641C456.041 342.375 455.709 342.242 455.31 342.242C454.908 342.242 454.574 342.371 454.308 342.629C454.043 342.887 453.91 343.195 453.91 343.555ZM453.57 347.521C453.57 347.822 453.641 348.113 453.781 348.395C453.926 348.676 454.139 348.895 454.42 349.051C454.701 349.203 455.004 349.279 455.328 349.279C455.832 349.279 456.248 349.117 456.576 348.793C456.904 348.469 457.068 348.057 457.068 347.557C457.068 347.049 456.898 346.629 456.558 346.297C456.223 345.965 455.801 345.799 455.293 345.799C454.797 345.799 454.385 345.963 454.057 346.291C453.732 346.619 453.57 347.029 453.57 347.521ZM459.336 348.014L460.349 347.92C460.435 348.396 460.599 348.742 460.842 348.957C461.084 349.172 461.394 349.279 461.773 349.279C462.098 349.279 462.381 349.205 462.623 349.057C462.869 348.908 463.07 348.711 463.226 348.465C463.383 348.215 463.514 347.879 463.619 347.457C463.724 347.035 463.777 346.605 463.777 346.168C463.777 346.121 463.775 346.051 463.771 345.957C463.56 346.293 463.271 346.566 462.904 346.777C462.541 346.984 462.146 347.088 461.721 347.088C461.01 347.088 460.408 346.83 459.916 346.314C459.424 345.799 459.178 345.119 459.178 344.275C459.178 343.404 459.433 342.703 459.945 342.172C460.461 341.641 461.105 341.375 461.879 341.375C462.437 341.375 462.947 341.525 463.408 341.826C463.873 342.127 464.224 342.557 464.463 343.115C464.705 343.67 464.826 344.475 464.826 345.529C464.826 346.627 464.707 347.502 464.469 348.154C464.23 348.803 463.875 349.297 463.402 349.637C462.933 349.977 462.383 350.146 461.75 350.146C461.078 350.146 460.529 349.961 460.103 349.59C459.678 349.215 459.422 348.689 459.336 348.014ZM463.654 344.223C463.654 343.617 463.492 343.137 463.168 342.781C462.848 342.426 462.461 342.248 462.008 342.248C461.539 342.248 461.131 342.439 460.783 342.822C460.435 343.205 460.262 343.701 460.262 344.311C460.262 344.857 460.426 345.303 460.754 345.646C461.086 345.986 461.494 346.156 461.978 346.156C462.467 346.156 462.867 345.986 463.18 345.646C463.496 345.303 463.654 344.828 463.654 344.223ZM466.449 350V348.799H467.65V350H466.449ZM469.197 345.764C469.197 344.748 469.301 343.932 469.508 343.314C469.719 342.693 470.029 342.215 470.439 341.879C470.853 341.543 471.373 341.375 471.998 341.375C472.459 341.375 472.863 341.469 473.211 341.656C473.558 341.84 473.846 342.107 474.072 342.459C474.299 342.807 474.476 343.232 474.605 343.736C474.734 344.236 474.799 344.912 474.799 345.764C474.799 346.771 474.695 347.586 474.488 348.207C474.281 348.824 473.971 349.303 473.557 349.643C473.146 349.979 472.627 350.146 471.998 350.146C471.17 350.146 470.519 349.85 470.047 349.256C469.48 348.541 469.197 347.377 469.197 345.764ZM470.281 345.764C470.281 347.174 470.445 348.113 470.773 348.582C471.105 349.047 471.514 349.279 471.998 349.279C472.482 349.279 472.889 349.045 473.217 348.576C473.549 348.107 473.715 347.17 473.715 345.764C473.715 344.35 473.549 343.41 473.217 342.945C472.889 342.48 472.478 342.248 471.986 342.248C471.502 342.248 471.115 342.453 470.826 342.863C470.463 343.387 470.281 344.354 470.281 345.764ZM475.877 345.764C475.877 344.748 475.98 343.932 476.187 343.314C476.398 342.693 476.709 342.215 477.119 341.879C477.533 341.543 478.053 341.375 478.678 341.375C479.139 341.375 479.543 341.469 479.891 341.656C480.238 341.84 480.525 342.107 480.752 342.459C480.978 342.807 481.156 343.232 481.285 343.736C481.414 344.236 481.478 344.912 481.478 345.764C481.478 346.771 481.375 347.586 481.168 348.207C480.961 348.824 480.65 349.303 480.236 349.643C479.826 349.979 479.307 350.146 478.678 350.146C477.849 350.146 477.199 349.85 476.726 349.256C476.16 348.541 475.877 347.377 475.877 345.764ZM476.961 345.764C476.961 347.174 477.125 348.113 477.453 348.582C477.785 349.047 478.193 349.279 478.678 349.279C479.162 349.279 479.568 349.045 479.896 348.576C480.228 348.107 480.394 347.17 480.394 345.764C480.394 344.35 480.228 343.41 479.896 342.945C479.568 342.48 479.158 342.248 478.666 342.248C478.182 342.248 477.795 342.453 477.506 342.863C477.142 343.387 476.961 344.354 476.961 345.764ZM482.756 343.473C482.756 342.859 482.91 342.338 483.219 341.908C483.527 341.479 483.974 341.264 484.56 341.264C485.099 341.264 485.545 341.457 485.896 341.844C486.252 342.227 486.43 342.791 486.43 343.537C486.43 344.264 486.25 344.824 485.891 345.219C485.535 345.609 485.096 345.805 484.572 345.805C484.053 345.805 483.619 345.611 483.271 345.225C482.928 344.838 482.756 344.254 482.756 343.473ZM484.59 341.99C484.328 341.99 484.109 342.104 483.933 342.33C483.762 342.557 483.676 342.973 483.676 343.578C483.676 344.129 483.764 344.518 483.939 344.744C484.115 344.967 484.332 345.078 484.59 345.078C484.855 345.078 485.074 344.965 485.246 344.738C485.422 344.512 485.51 344.098 485.51 343.496C485.51 342.941 485.422 342.553 485.246 342.33C485.07 342.104 484.851 341.99 484.59 341.99ZM484.596 350.316L489.295 341.264H490.15L485.469 350.316H484.596ZM488.31 347.984C488.31 347.367 488.465 346.846 488.773 346.42C489.082 345.99 489.531 345.775 490.121 345.775C490.66 345.775 491.105 345.969 491.457 346.355C491.812 346.738 491.99 347.303 491.99 348.049C491.99 348.775 491.81 349.336 491.451 349.73C491.096 350.121 490.654 350.316 490.127 350.316C489.607 350.316 489.174 350.123 488.826 349.736C488.482 349.346 488.31 348.762 488.31 347.984ZM490.15 346.502C489.885 346.502 489.664 346.615 489.488 346.842C489.316 347.068 489.23 347.484 489.23 348.09C489.23 348.637 489.318 349.023 489.494 349.25C489.67 349.477 489.887 349.59 490.144 349.59C490.414 349.59 490.635 349.477 490.807 349.25C490.982 349.023 491.07 348.609 491.07 348.008C491.07 347.453 490.982 347.064 490.807 346.842C490.631 346.615 490.412 346.502 490.15 346.502Z" fill="#5300D0"/>
<path d="M305 328L326.278 336.158H494.714" stroke="#5300D0"/>
<defs>
<radialGradient id="paint0_radial_58_435" cx="0" cy="0" r="1" gradientUnits="userSpaceOnUse" gradientTransform="translate(254 187) rotate(-90) scale(156)">
<stop stop-color="#2A006A" stop-opacity="0.1"/>
<stop offset="0.899075" stop-color="#5300D0" stop-opacity="0.5"/>
</radialGradient>
</defs>
</svg>
